<?xml version="1.0" encoding="UTF-8"?>
<svg id="Layer_1" data-name="Layer 1" xmlns="http://www.w3.org/2000/svg" viewBox="0 0 835.41 294.17">
  <defs>
    <style>
      .cls-1 {
        fill: #fff;
      }
    </style>
  </defs>
  <path class="cls-1" d="M142.73,282.72c1.22-.82,5.1-4.17,6.46-5.39,5.62-3.43,5-3.38,7.21-5.13,4.5-3.57,8.95-7.21,13.27-10.99,5.51-4.83,10.99-9.72,16.28-14.79,3.32-3.18,6.6-6.5,9.31-10.18,3.43-4.67,6.29-9.76,9.33-14.7,4.9-7.95,8.27-16.61,11.48-25.32,1.88-5.12,3.34-10.39,5.06-15.57.27-.81.93-1.48,1.2-2.51-18.48,10.14-38.57,13.86-58.94,16.58l-.56-.88c.63-.62,1.15-1.45,1.9-1.83,3.68-1.89,7.46-3.6,11.13-5.51,3.07-1.51,6.05-3.21,8.92-5.08,6.66-4.57,13.29-9.21,19.73-14.09,4.93-3.63,9.62-7.57,14.06-11.78,3.51-3.42,6.44-7.46,9.39-11.41,7.19-9.65,11.48-20.28,10.33-32.59-.44-4.7-1.44-9.24-3.88-13.38-1.73-2.94-3.19-6.04-5.02-8.91-2.97-4.67-7.16-8.03-12.11-10.46-5.15-2.52-10.71-2.65-16.26-2.5-11.44.31-22.87.95-34.31,1.08-7.33.15-14.67-.16-21.97-.92-6.5-.73-12.81-2.69-19.07-4.82-7.33-2.5-13.96-6.27-20.52-10.1-5.77-3.37-10.94-7.78-16.29-11.85-1.43-1.09-2.56-2.6-3.76-3.98-.4-.57-.74-1.19-1.01-1.83,1.78-.76,2.76.02,4.06.84,4.04,2.61,8.23,4.96,12.56,7.05,4.89,2.25,9.89,4.23,15,5.91,2.91.97,6.06,1.27,9.12,1.73,15.73,2.36,31.24.3,46.7-2.49,11.91-2.15,23.78-4.48,35.73-6.41,8.36-1.43,16.88-1.72,25.32-.87,5.76.63,11.62,1.11,17.18,2.59,10.31,2.76,19.89,7.31,27.43,15.1,3.87,4,6.35,9.07,8.24,14.32,4.52,12.59,4.46,25.54,2.93,38.6-1.23,10.52-4.9,20.27-9.37,29.73-2.86,6.05-6.19,11.87-9.41,17.75-1.41,2.58-3,5.06-4.58,7.53-3.18,4.98-6.2,10.07-9.66,14.84-3.97,5.46-8.37,10.6-12.54,15.91-1.89,2.41-3.59,4.98-5.52,7.36-1.94,2.4-4.1,4.63-6.08,6.99-2.44,2.91-4.66,6.02-7.24,8.8-3.57,3.86-7.29,7.61-11.13,11.2-5.27,4.92-10.64,9.72-16.12,14.4-2.17,1.86-4.74,3.26-7.11,4.89-3.04,2.09-6.03,4.27-9.11,6.3-3.13,2.07-6.3,4.07-9.52,6-5.05,3.02-10.02,6.22-15.27,8.87-7.16,3.61-14.53,6.8-21.85,10.09-.86.39-1.95.26-2.94.38.66-.87,1.18-1.95,2.03-2.57,1.41-.95,2.9-1.77,4.45-2.45.74-.31,1.38-.8,1.88-1.42.49-.63.82-1.37.94-2.16.73-4.43,1.46-8.86,2.04-13.31.51-3.94.52-7.87-1.66-11.58-3.5.07-6.7,1.59-9.85,3.2-7.74,3.98-13.49,10.34-19.4,16.45-2.68,2.77-4.7,6.17-7.15,9.17-1.57,1.93-3.39,3.66-5.13,5.44-.19.2-.76.36-.85.26-.32-.29-.52-.69-.57-1.12.12-1.71.05-3.51.58-5.1,2.42-7.32,4.89-14.63,7.59-21.86,1.21-3.24,3.21-6.18,4.5-9.4,1.65-4.09,3.78-7.97,6.34-11.56,4.15-5.82,8.79-11.33,14.9-15.45,4.22-2.85,8.57-4.7,13.64-4.44,7.1.37,10.44,3.12,11.87,10.1,1.3,6.33,1.64,12.73.51,19.12-1,5.64-3.15,10.87-5.91,15.89-1.7,3.1-3.52,5.62-5.82,8.79-.29.45-.56.85-.75,1.31l-2.38,4.08Z"/>
  <path class="cls-1" d="M119.24,192.99c1.28,1.06,1.35,3.16-.17,2.5-2.46-1.08-4.96-2.1-7.38-3.25-3.21-1.53-6.44-3.04-9.53-4.78-4.99-2.8-9.91-5.73-14.8-8.71-2.91-1.78-5.68-3.79-8.55-5.63-.93-.54-1.55.57-.91,1.43.12.16.24.32.35.48,2.75,4.25,5.74,8.38,8.07,12.85,3.36,6.35,6.37,12.87,9.04,19.54,1.82,4.64,2.84,9.62,3.91,14.52,2.29,10.49,2.87,21.06,1.13,31.72-1.01,6.18-2.75,12.15-5.82,17.58-4.7,8.32-11.26,15.06-19.05,20.54-1.62,1.14-3.72,1.65-5.66,2.26-1.59.5-1.93-.49-1.44-1.75.84-2.15,1.55-4.41,2.77-6.32,3.26-5.07,4.87-10.77,6.78-16.38,2.07-6.09,3.65-12.31,3.97-18.73.23-4.08.1-8.18-.38-12.24-.3-2.41-1.44-4.8-2.57-7-1.51-2.91-3.2-5.72-5.06-8.43-3.02-4.47-6.11-8.89-9.36-13.2-1.82-2.26-3.76-4.4-5.83-6.43-5.89-6.13-11.85-12.2-17.73-18.35-2.92-3.05-5.75-6.18-8.54-9.35-4.87-5.53-9.91-10.93-14.45-16.73-5.07-6.58-9.14-13.88-12.08-21.65C1.99,127.26.8,116.65.23,105.85c-.39-7.3-.47-14.56,1.29-21.68.8-3.25,2.17-6.36,3.33-9.51,2.57-7.02,7.94-11.92,13.22-16.76,2.06-1.89,4.92-3.04,7.58-4.13,11.1-4.61,23.21-6.3,35.15-4.89,8.44.98,16.32,3.33,24.11,6.6,6.17,2.59,11.48,6.48,17.18,9.77,7.3,4.22,14.37,8.89,21.88,12.7,6.02,2.99,12.28,5.47,18.72,7.41,8.22,2.56,16.82,3.7,25.42,3.39,8.05-.29,16.08-1.06,24.12-1.57.77-.05,1.09,1.14.79,1.85-.15.34-.32.62-.57.75-12.26,5.95-25.58,6.59-38.81,7.31-5.03.27-10.13-.56-15.18-1.09-3.47-.33-6.92-.89-10.31-1.7-6.61-1.64-13.24-3.13-19.46-6.21-4.8-2.38-10.08-3.81-15.14-5.69-5.16-1.91-10.55-3.15-16.03-3.69-7.51-.77-14.47.79-19.78,6.41-3.82,4.03-5.82,9.17-6.97,14.65-1.46,7.17-.96,14.6,1.45,21.51,1.78,5.32,4.29,10.36,7.45,14.99,4.53,6.55,9.6,12.72,15.15,18.44,6.4,6.7,13.52,12.57,20.62,18.48,7.92,6.6,15.85,13.19,23.77,19.78.01,0,.02.02.03.02Z"/>
  <path class="cls-1" d="M31.24,41.89c-3.87.5-7.81-.17-11.3-1.92-3.34-1.71-6.27-4.12-8.59-7.07-4.18-5.24-4.32-11.26-3.81-17.33.25-3.18,1.69-6.15,4.05-8.3.15-.13.28-.28.4-.44C16.38,1.22,22.42-.22,29.15.03c3.82.14,7.71-.05,11.18,1.91,10.43,5.92,14.33,11.85,13,24.46-.87,8.19-9.42,15.12-18.13,15.48-1.32.06-2.64,0-3.95,0Z"/>
  <path class="cls-1" d="M239.06,41.55c-5.79.64-11.09-1.32-15.48-5.6-2.23-2.17-3.91-4.77-4.12-8.05-.14-2.17-.66-4.42-.3-6.5.38-2.19,1.16-4.61,2.56-6.26,2.64-3.13,5.89-5.91,10.14-6.52,8.59-1.25,16.51-.01,22.82,6.79,1.57,1.61,2.58,3.67,2.89,5.9.55,3.98,1.29,7.98-.89,11.8-2.91,5.09-7.36,7.76-13.08,8.43-1.51.09-3.03.1-4.54.02Z"/>
  <ellipse class="cls-1" cx="151.25" cy="210.91" rx="10.33" ry="10.33"/>
  <path class="cls-1" d="M286.32,231.49c10.08,0,17.81,2.48,23.2,7.44,5.39,4.9,8.09,11.75,8.09,20.54s-2.64,15.74-7.92,20.86c-5.23,5.12-13.23,7.68-24.01,7.68h-19.32v-56.52h19.97ZM286.97,276.85c5.77,0,10.19-1.46,13.26-4.37,3.13-2.91,4.69-7.14,4.69-12.69s-1.56-9.81-4.69-12.77c-3.07-3.02-7.82-4.53-14.23-4.53h-7.03v34.36h8ZM366.82,231.49v11.24h-28.14v11.64h25.31v10.75h-25.31v11.72h29.03v11.16h-41.64v-56.52h40.75ZM416.08,231.49h12.61v56.52h-12.61l-26.92-35.41v35.41h-12.61v-56.52h11.8l27.73,36.38v-36.38ZM464.14,242.41v45.6h-12.61v-45.6h-16.01v-10.92h44.63v10.92h-16.01ZM523.13,288.01l-5.26-12.21h-23.69l-5.26,12.21h-13.42l24.42-56.52h12.21l24.42,56.52h-13.42ZM506.07,248.31l-7.11,16.41h14.15l-7.03-16.41ZM540.68,288.01v-56.52h12.61v45.28h24.09v11.24h-36.71ZM620.97,276.85c6.2,0,11.27-2.45,15.2-7.36l8.09,8.33c-6.41,7.22-13.99,10.83-22.72,10.83s-15.85-2.75-21.51-8.25c-5.61-5.5-8.41-12.42-8.41-20.78s2.86-15.42,8.57-21.02c5.77-5.61,12.8-8.41,21.1-8.41,9.27,0,17.03,3.53,23.28,10.59l-7.84,8.89c-3.99-4.96-8.95-7.44-14.88-7.44-4.74,0-8.81,1.56-12.21,4.69-3.34,3.07-5.01,7.25-5.01,12.53s1.59,9.43,4.77,12.61c3.18,3.18,7.03,4.77,11.56,4.77ZM694.1,288.01l-5.26-12.21h-23.69l-5.26,12.21h-13.42l24.42-56.52h12.21l24.42,56.52h-13.42ZM677.04,248.31l-7.11,16.41h14.15l-7.03-16.41ZM759.93,250.25c0,9.06-3.59,14.9-10.75,17.54l14.31,20.21h-15.52l-12.53-18.03h-8.73v18.03h-12.61v-56.52h21.43c8.79,0,15.04,1.48,18.76,4.45,3.77,2.96,5.66,7.73,5.66,14.31ZM735.91,259.06c4.31,0,7.25-.7,8.81-2.1s2.34-3.61,2.34-6.63-.81-5.17-2.42-6.31-4.45-1.7-8.49-1.7h-9.46v16.74h9.22ZM811.15,231.49v11.24h-28.14v11.64h25.31v10.75h-25.31v11.72h29.03v11.16h-41.64v-56.52h40.75Z"/>
  <path class="cls-1" d="M301.47,209.74v-19.26c0-.61.22-.96.65-1.03.43-.11.76.09.97.6,1.3,2.96,2.71,5.57,4.22,7.85,1.55,2.27,3.25,4.18,5.09,5.73,1.88,1.52,3.93,2.67,6.17,3.46,2.24.79,4.73,1.19,7.47,1.19,1.55,0,3.03-.22,4.44-.65,1.41-.47,2.63-1.19,3.68-2.16,1.08-.97,1.93-2.22,2.54-3.73.65-1.52.97-3.34.97-5.46s-.38-3.79-1.14-5.3c-.72-1.55-1.71-2.92-2.98-4.11-1.23-1.19-2.63-2.22-4.22-3.08-1.59-.9-3.21-1.71-4.87-2.43-1.84-.79-3.66-1.62-5.46-2.49-1.77-.87-3.46-1.84-5.08-2.92-1.62-1.08-3.12-2.33-4.49-3.73-1.33-1.41-2.47-3.03-3.41-4.87-.83-1.59-1.48-3.21-1.95-4.87-.43-1.66-.65-3.37-.65-5.14,0-2.56.45-5.14,1.35-7.74.9-2.6,2.38-4.94,4.44-7.03,2.06-2.09,4.73-3.79,8.01-5.08,3.32-1.34,7.39-2,12.23-2,3.07,0,5.72.25,7.95.76,2.24.47,4.09,1.01,5.57,1.62,1.52.58,2.67,1.14,3.46,1.68.79.51,1.24.81,1.35.92.43.33.65.7.65,1.14v9.85c0,.25-.07.47-.22.65-.15.14-.31.23-.49.27-.18,0-.36-.04-.54-.11-.18-.11-.32-.29-.43-.54-.68-1.62-1.5-3.23-2.43-4.82-.94-1.62-2.13-3.05-3.57-4.27-1.41-1.26-3.14-2.27-5.19-3.03-2.05-.79-4.53-1.19-7.41-1.19-3.75,0-6.67.88-8.76,2.65-2.09,1.77-3.14,4.17-3.14,7.2,0,1.73.29,3.25.87,4.54s1.55,2.52,2.92,3.68c1.41,1.12,3.26,2.25,5.57,3.41,2.31,1.12,5.21,2.38,8.71,3.79,3.39,1.37,6.38,2.85,8.98,4.44,2.6,1.59,4.76,3.37,6.49,5.36,1.77,1.95,3.08,4.17,3.95,6.65.9,2.49,1.35,5.34,1.35,8.55s-.58,6.15-1.73,8.93c-1.12,2.78-2.85,5.21-5.19,7.3-2.35,2.05-5.3,3.68-8.87,4.87-3.57,1.19-7.77,1.79-12.61,1.79-3.07,0-6.11-.4-9.14-1.19-2.99-.76-5.9-1.61-8.71-2.54-.4-.14-.83-.29-1.3-.43s-.92-.22-1.35-.22c-.87,0-1.5.29-1.89.86-.4.54-.77,1.23-1.14,2.06-.22.51-.56.72-1.03.65-.43-.07-.65-.4-.65-.97ZM449.07,208.28c.33.07.56.2.7.38.18.18.25.38.22.6,0,.18-.09.36-.27.54-.18.14-.45.22-.81.22h-34.51c-.36,0-.63-.07-.81-.22-.18-.18-.29-.36-.33-.54,0-.22.07-.42.22-.6.18-.18.43-.31.76-.38.43-.07,1.12-.22,2.06-.43.94-.25,1.88-.68,2.81-1.3.97-.61,1.82-1.44,2.54-2.49.72-1.05,1.08-2.42,1.08-4.11v-50.15c0-.25-.11-.41-.33-.49-.18-.11-.36.02-.54.38-.07.15-.34.81-.81,2-.47,1.15-1.08,2.71-1.84,4.65-.76,1.91-1.64,4.13-2.65,6.65-1.01,2.49-2.07,5.14-3.19,7.95s-2.27,5.7-3.46,8.66c-1.15,2.96-2.29,5.84-3.41,8.66-1.12,2.78-2.18,5.41-3.19,7.9-.97,2.49-1.84,4.69-2.6,6.6-.76,1.88-1.37,3.37-1.84,4.49s-.72,1.71-.76,1.79c-.22.36-.5.54-.87.54-.32,0-.58-.18-.76-.54-.04-.07-.29-.7-.76-1.89-.47-1.23-1.1-2.85-1.89-4.87-.79-2.02-1.71-4.36-2.76-7.03-1.05-2.71-2.16-5.55-3.35-8.55-1.15-3.03-2.35-6.13-3.57-9.3-1.23-3.21-2.43-6.33-3.62-9.36-1.15-3.03-2.25-5.9-3.3-8.6-1.05-2.71-1.96-5.09-2.76-7.14-.79-2.09-1.44-3.77-1.95-5.03-.51-1.26-.78-1.97-.81-2.11-.11-.29-.27-.43-.49-.43s-.34.18-.38.54v54.7c0,1.69.36,3.07,1.08,4.11.72,1.05,1.55,1.88,2.49,2.49.97.61,1.93,1.05,2.87,1.3.94.22,1.62.36,2.06.43.32.07.56.2.7.38.18.18.25.38.22.6,0,.18-.09.36-.27.54-.18.14-.45.22-.81.22h-20.45c-.36,0-.63-.07-.81-.22-.18-.18-.29-.36-.33-.54,0-.22.07-.42.22-.6.18-.18.43-.31.76-.38.43-.07,1.12-.22,2.06-.43.94-.25,1.88-.68,2.81-1.3.97-.61,1.82-1.44,2.54-2.49.72-1.05,1.08-2.42,1.08-4.11v-52.91c0-1.66-.36-3.01-1.08-4.06-.72-1.08-1.57-1.91-2.54-2.49-.94-.61-1.88-1.04-2.81-1.3-.94-.25-1.62-.42-2.06-.49-.32-.04-.58-.14-.76-.32-.14-.22-.22-.42-.22-.6.04-.22.15-.4.33-.54.18-.18.45-.27.81-.27h26.67c1.05,0,1.75.43,2.11,1.3.32.9.81,2.2,1.46,3.89.65,1.7,1.39,3.62,2.22,5.79.83,2.13,1.71,4.44,2.65,6.93.94,2.49,1.88,4.98,2.81,7.47.94,2.45,1.84,4.83,2.71,7.14.9,2.31,1.7,4.38,2.38,6.22.72,1.84,1.32,3.37,1.79,4.6.47,1.19.76,1.91.87,2.16.07.18.18.29.32.32.14,0,.25-.09.32-.27.07-.18.34-.87.81-2.06.47-1.19,1.06-2.69,1.79-4.49.76-1.84,1.6-3.91,2.54-6.22.94-2.34,1.89-4.76,2.87-7.25,1.01-2.49,2-4.98,2.98-7.47,1.01-2.49,1.95-4.82,2.81-6.98.9-2.2,1.7-4.15,2.38-5.84.68-1.73,1.21-3.05,1.57-3.95.36-.87,1.1-1.3,2.22-1.3h23.91c.36,0,.63.09.81.27.18.15.27.33.27.54.04.18-.04.38-.22.6-.14.18-.38.29-.7.32-.43.07-1.12.24-2.06.49-.94.25-1.89.68-2.87,1.3-.94.58-1.77,1.41-2.49,2.49-.72,1.05-1.08,2.4-1.08,4.06v52.91c0,1.69.36,3.07,1.08,4.11.72,1.05,1.55,1.88,2.49,2.49.97.61,1.93,1.05,2.87,1.3.94.22,1.62.36,2.06.43ZM487.98,208.28c.32.07.56.2.7.38.18.18.25.38.22.6,0,.18-.09.36-.27.54-.18.14-.45.22-.81.22h-34.52c-.36,0-.63-.07-.81-.22-.18-.18-.29-.36-.33-.54,0-.22.07-.42.22-.6.18-.18.43-.31.76-.38.43-.07,1.12-.22,2.06-.43.94-.25,1.88-.68,2.81-1.3.97-.61,1.82-1.44,2.54-2.49.72-1.05,1.08-2.42,1.08-4.11v-52.91c0-1.66-.36-3.01-1.08-4.06-.72-1.08-1.57-1.91-2.54-2.49-.94-.61-1.88-1.04-2.81-1.3-.94-.25-1.62-.42-2.06-.49-.33-.04-.58-.14-.76-.32-.14-.22-.22-.42-.22-.6.04-.22.14-.4.33-.54.18-.18.45-.27.81-.27h34.52c.36,0,.63.09.81.27.18.15.27.33.27.54.04.18-.04.38-.22.6-.14.18-.38.29-.7.32-.43.07-1.12.24-2.06.49-.94.25-1.89.68-2.87,1.3-.94.58-1.77,1.41-2.49,2.49-.72,1.05-1.08,2.4-1.08,4.06v52.91c0,1.69.36,3.07,1.08,4.11.72,1.05,1.55,1.88,2.49,2.49.97.61,1.93,1.05,2.87,1.3.94.22,1.62.36,2.06.43ZM546.88,192.97c.22-.58.56-.83,1.03-.76.47.04.7.34.7.92v15.85c0,.69-.38,1.03-1.14,1.03h-55.29c-.36,0-.63-.07-.81-.22-.18-.18-.29-.36-.32-.54,0-.22.07-.42.22-.6.18-.18.43-.31.76-.38.43-.07,1.12-.22,2.05-.43.94-.25,1.88-.68,2.81-1.3.97-.61,1.82-1.44,2.54-2.49.72-1.05,1.08-2.42,1.08-4.11v-52.91c0-1.66-.36-3.01-1.08-4.06-.72-1.08-1.57-1.91-2.54-2.49-.94-.61-1.88-1.04-2.81-1.3-.94-.25-1.62-.42-2.05-.49-.33-.04-.58-.14-.76-.32-.14-.22-.22-.42-.22-.6.04-.22.14-.4.32-.54.18-.18.45-.27.81-.27h34.52c.36,0,.63.09.81.27.18.15.27.33.27.54.04.18-.04.38-.22.6-.14.18-.38.29-.7.32-.43.07-1.12.24-2.06.49-.94.25-1.89.68-2.87,1.3-.94.58-1.77,1.41-2.49,2.49-.72,1.05-1.08,2.4-1.08,4.06v55.78c0,.87.11,1.57.33,2.11.25.51.7.9,1.35,1.19.68.25,1.62.43,2.81.54,1.23.07,2.81.11,4.76.11,2.34,0,4.42-.29,6.22-.87,1.84-.61,3.45-1.37,4.82-2.27,1.41-.9,2.6-1.91,3.57-3.03.97-1.12,1.78-2.18,2.43-3.19.65-1.01,1.14-1.91,1.46-2.71.36-.83.61-1.41.76-1.73ZM607.79,194.43c.22-.58.56-.83,1.03-.76.47.04.7.34.7.92v14.39c0,.69-.38,1.03-1.14,1.03h-57.45c-.36,0-.63-.07-.81-.22-.18-.18-.29-.36-.33-.54,0-.22.07-.42.22-.6.18-.18.43-.31.76-.38.43-.07,1.12-.22,2.06-.43.94-.25,1.88-.68,2.81-1.3.97-.61,1.82-1.44,2.54-2.49.72-1.05,1.08-2.42,1.08-4.11v-52.91c0-1.66-.36-3.01-1.08-4.06-.72-1.08-1.57-1.91-2.54-2.49-.94-.61-1.88-1.04-2.81-1.3-.94-.25-1.62-.42-2.06-.49-.32-.04-.58-.14-.76-.32-.15-.22-.22-.42-.22-.6.04-.22.15-.4.33-.54.18-.18.45-.27.81-.27h52.75c.76,0,1.14.34,1.14,1.03v11.25c0,.54-.22.85-.65.92-.43.04-.79-.2-1.08-.7-.22-.47-.65-1.21-1.3-2.22-.65-1.05-1.55-2.09-2.71-3.14-1.15-1.08-2.6-2.02-4.33-2.81-1.73-.83-3.8-1.24-6.22-1.24-1.7,0-3.25.14-4.65.43-1.41.29-2.61.76-3.62,1.41-.97.61-1.75,1.42-2.33,2.43-.54.97-.81,2.16-.81,3.57v22.83-.81c0,.22.07.41.22.6.18.14.38.22.59.22h6.92c1.62,0,2.94-.32,3.95-.97,1.05-.65,1.86-1.41,2.43-2.27.61-.87,1.05-1.71,1.3-2.54.25-.86.42-1.51.49-1.95.04-.29.14-.49.32-.6.22-.15.41-.2.59-.16.22,0,.4.09.54.27.18.14.27.36.27.65v18.39c0,.29-.09.52-.27.7-.14.14-.32.23-.54.27-.18,0-.38-.06-.59-.16-.18-.14-.29-.36-.32-.65-.07-.43-.23-1.06-.49-1.89-.25-.87-.69-1.73-1.3-2.6-.58-.87-1.39-1.62-2.43-2.27-1.01-.65-2.33-.97-3.95-.97h-6.92c-.22,0-.41.09-.59.27-.14.14-.22.32-.22.54v-.81,24.94c0,2.56,1.12,4.51,3.36,5.84,2.24,1.34,5.41,2,9.52,2,1.95,0,3.71-.25,5.3-.76,1.62-.54,3.07-1.21,4.33-2,1.3-.79,2.42-1.68,3.35-2.65.97-1.01,1.78-1.96,2.43-2.87.69-.9,1.21-1.71,1.57-2.43.4-.76.67-1.3.81-1.62ZM680.2,172.3c2.96.76,5.39,1.79,7.3,3.08,1.91,1.26,3.43,2.7,4.54,4.33,1.12,1.59,1.89,3.32,2.33,5.19.43,1.84.65,3.73.65,5.68,0,2.6-.45,5.07-1.35,7.41-.9,2.34-2.38,4.42-4.44,6.22-2.02,1.77-4.69,3.17-8.01,4.22-3.28,1.05-7.32,1.57-12.12,1.57h-35.65c-.36,0-.63-.07-.81-.22-.18-.18-.29-.36-.32-.54,0-.22.07-.42.22-.6.18-.18.43-.31.76-.38.43-.07,1.12-.22,2.05-.43.94-.25,1.88-.68,2.81-1.3.97-.61,1.82-1.44,2.54-2.49.72-1.05,1.08-2.42,1.08-4.11v-52.91c0-1.66-.36-3.01-1.08-4.06-.72-1.08-1.57-1.91-2.54-2.49-.94-.61-1.88-1.04-2.81-1.3-.94-.25-1.62-.42-2.05-.49-.33-.04-.58-.14-.76-.32-.14-.22-.22-.42-.22-.6.04-.22.14-.4.32-.54.18-.18.45-.27.81-.27h37.65c3.79,0,6.94.45,9.47,1.35,2.56.9,4.62,2.15,6.17,3.73,1.59,1.55,2.71,3.39,3.35,5.52.68,2.09,1.03,4.33,1.03,6.71,0,1.66-.18,3.32-.54,4.98-.36,1.66-.97,3.25-1.84,4.76-.83,1.51-1.96,2.92-3.41,4.22-1.41,1.3-3.16,2.43-5.25,3.41-.22.11-.31.23-.27.38.04.11.16.2.38.27ZM659.64,167.54c0,1.01.27,1.82.81,2.43.58.58,1.39.87,2.43.87.94,0,1.97-.22,3.08-.65,1.15-.43,2.22-1.26,3.19-2.49.97-1.26,1.79-3.01,2.43-5.25.65-2.27.97-5.23.97-8.87,0-1.59-.05-3.19-.16-4.81-.11-1.62-.4-3.08-.86-4.38-.47-1.34-1.15-2.42-2.06-3.25-.9-.83-2.15-1.25-3.73-1.25-1.3,0-2.36.25-3.19.76-.79.47-1.41,1.21-1.84,2.22-.43.97-.72,2.2-.87,3.68-.14,1.44-.22,3.14-.22,5.08v15.9ZM666.84,206.92c1.41,0,2.58-.29,3.52-.86.97-.61,1.77-1.41,2.38-2.38.65-.97,1.14-2.05,1.46-3.25.36-1.23.61-2.45.76-3.68.14-1.23.23-2.4.27-3.52.04-1.12.05-2.07.05-2.87,0-2.74-.22-5.05-.65-6.93-.43-1.91-1.01-3.48-1.73-4.71-.72-1.23-1.53-2.16-2.43-2.81-.87-.69-1.75-1.17-2.65-1.46-.87-.32-1.71-.51-2.54-.54-.79-.07-1.46-.11-2-.11-1.12,0-2,.31-2.65.92-.65.58-.97,1.37-.97,2.38v16.99c0,1.95.09,3.71.27,5.3.22,1.59.6,2.94,1.14,4.06.54,1.08,1.26,1.93,2.16,2.54.94.61,2.15.92,3.62.92ZM771.1,208.22c.29.07.49.2.6.38.11.18.14.38.11.6-.04.22-.14.41-.32.6-.18.14-.43.22-.76.22h-33.97c-.25,0-.47-.07-.65-.22-.15-.14-.25-.31-.33-.49-.04-.22,0-.42.11-.6.15-.18.4-.32.76-.43.36-.11.99-.31,1.89-.6.94-.29,1.82-.76,2.65-1.41.87-.68,1.53-1.59,2-2.71s.41-2.54-.16-4.27c-.18-.47-.43-1.17-.76-2.11-.29-.94-.61-1.96-.97-3.08-.36-1.15-.76-2.33-1.19-3.52-.4-1.23-.76-2.34-1.08-3.35-.33-1.05-.61-1.93-.87-2.65-.25-.72-.4-1.15-.43-1.3-.11-.32-.31-.49-.6-.49h-23.32c-.33,0-.54.14-.65.43-.14.43-.38,1.15-.7,2.16-.29,1.01-.63,2.15-1.03,3.41-.4,1.26-.81,2.6-1.24,4-.4,1.37-.78,2.65-1.14,3.84-.36,1.19-.68,2.24-.97,3.14-.25.87-.4,1.43-.43,1.68-.29,1.34-.23,2.42.16,3.25.43.83,1.01,1.5,1.73,2,.72.47,1.5.81,2.33,1.03.83.22,1.51.4,2.06.54.33.07.54.22.65.43.11.18.14.38.11.6-.04.18-.14.34-.32.49-.18.14-.4.22-.65.22h-20.02c-.29,0-.51-.07-.65-.22-.18-.14-.27-.31-.27-.49-.04-.18.02-.36.16-.54.11-.22.31-.36.6-.43.94-.25,1.86-.56,2.76-.92.9-.36,1.73-.81,2.49-1.35.79-.58,1.5-1.26,2.11-2.06.65-.79,1.19-1.73,1.62-2.81.22-.54.68-1.82,1.41-3.84.72-2.06,1.6-4.56,2.65-7.52,1.05-2.99,2.2-6.29,3.46-9.9,1.26-3.61,2.52-7.25,3.79-10.93,1.3-3.71,2.56-7.32,3.79-10.82,1.23-3.54,2.31-6.67,3.25-9.41.94-2.74,1.7-4.96,2.27-6.65.61-1.69.94-2.6.97-2.71.14-.4.32-.7.54-.92.22-.22.56-.36,1.03-.43.79-.14,1.71-.34,2.76-.6,1.04-.25,2.11-.52,3.19-.81,1.12-.29,2.22-.6,3.3-.92,1.08-.36,2.07-.74,2.98-1.14.61-.29,1.05-.36,1.3-.22.29.14.52.43.7.87.04.11.32,1.01.86,2.71.58,1.69,1.32,3.91,2.22,6.65.94,2.71,1.98,5.81,3.14,9.31s2.34,7.1,3.57,10.82c1.26,3.72,2.51,7.41,3.73,11.09,1.23,3.68,2.35,7.05,3.35,10.12,1.05,3.07,1.93,5.72,2.65,7.95.72,2.2,1.23,3.7,1.52,4.49.54,1.55,1.17,2.9,1.89,4.06.76,1.12,1.57,2.09,2.43,2.92.9.79,1.84,1.43,2.81,1.89.97.47,1.98.79,3.03.97ZM714.67,178.58c-.18.47-.04.7.43.7h20.61c.43,0,.58-.22.43-.65-.04-.11-.22-.63-.54-1.57-.29-.97-.69-2.2-1.19-3.68-.51-1.51-1.06-3.21-1.68-5.09-.61-1.88-1.24-3.77-1.89-5.68-.65-1.95-1.28-3.84-1.89-5.68-.61-1.88-1.17-3.54-1.68-4.98-.47-1.48-.86-2.67-1.19-3.57-.29-.9-.43-1.37-.43-1.41-.07-.25-.23-.36-.49-.32-.22.04-.36.16-.43.38-.04.07-.25.74-.65,2-.4,1.23-.9,2.81-1.52,4.76-.61,1.91-1.3,4.06-2.06,6.44-.76,2.34-1.52,4.67-2.27,6.98-.72,2.31-1.41,4.47-2.06,6.49-.61,2.02-1.12,3.64-1.52,4.87ZM819.28,143.79c.58-1.12.78-1.98.6-2.6-.14-.65-.49-1.14-1.03-1.46-.51-.36-1.08-.6-1.73-.7-.65-.15-1.19-.25-1.62-.32-.33-.04-.58-.14-.76-.32-.14-.22-.22-.42-.22-.6.04-.22.14-.4.33-.54.18-.18.45-.27.81-.27h18.66c.36,0,.63.09.81.27.18.15.27.33.27.54.04.22-.04.42-.22.6-.14.18-.38.29-.7.32-.54.07-1.19.22-1.95.43-.76.18-1.59.5-2.49.97-.87.43-1.8,1.03-2.81,1.79-.97.76-1.95,1.75-2.92,2.97-.47.58-1.21,1.53-2.22,2.87-1.01,1.33-2.15,2.87-3.41,4.6-1.26,1.69-2.58,3.48-3.95,5.36-1.33,1.84-2.6,3.57-3.79,5.19-1.15,1.62-2.15,3.03-2.98,4.22-.79,1.19-1.28,1.97-1.46,2.33-.4.87-.68,1.7-.86,2.49-.18.76-.27,1.75-.27,2.98v25.05c0,1.69.36,3.07,1.08,4.11.72,1.05,1.55,1.88,2.49,2.49.97.61,1.93,1.05,2.87,1.3.94.22,1.62.36,2.06.43.32.07.56.2.7.38.18.18.25.38.22.6,0,.18-.09.36-.27.54-.18.14-.45.22-.81.22h-33.97c-.36,0-.63-.07-.81-.22-.18-.18-.29-.36-.33-.54,0-.22.07-.42.22-.6.18-.18.43-.31.76-.38.43-.07,1.12-.22,2.06-.43.94-.25,1.88-.68,2.81-1.3.97-.61,1.82-1.44,2.54-2.49.72-1.05,1.08-2.42,1.08-4.11v-21.26c0-.47-.04-.92-.11-1.35-.07-.47-.2-.94-.38-1.41-.18-.5-.43-1.05-.76-1.62-.22-.36-.63-.99-1.24-1.89-.58-.94-1.3-2.06-2.16-3.35-.87-1.33-1.82-2.79-2.87-4.38-1.01-1.59-2.06-3.21-3.14-4.87-1.08-1.66-2.16-3.28-3.25-4.87-1.05-1.62-2.02-3.1-2.92-4.44-.9-1.33-1.68-2.49-2.33-3.46-.65-1.01-1.12-1.73-1.41-2.16-.58-.83-1.26-1.6-2.06-2.33-.79-.72-1.62-1.35-2.49-1.89-.86-.54-1.7-.97-2.49-1.3-.83-.32-1.57-.54-2.22-.65-.33-.04-.56-.14-.7-.32-.18-.18-.25-.38-.22-.6,0-.22.09-.4.27-.54.18-.18.45-.27.81-.27h33.97c.36,0,.63.09.81.27.18.15.27.33.27.54.04.18-.04.38-.22.6-.14.18-.38.29-.7.32-.43.07-.97.18-1.62.32-.65.14-1.24.4-1.79.76-.5.32-.87.81-1.08,1.46-.18.65-.04,1.5.43,2.54.33.72.87,1.77,1.62,3.14.76,1.34,1.6,2.81,2.54,4.44.97,1.59,1.98,3.23,3.03,4.92,1.08,1.7,2.07,3.26,2.98,4.71.94,1.41,1.73,2.6,2.38,3.57.65.97,1.06,1.55,1.24,1.73.54.61,1.1.65,1.68.11.14-.14.59-.74,1.35-1.79.76-1.05,1.66-2.33,2.71-3.84,1.05-1.51,2.18-3.17,3.41-4.98,1.23-1.8,2.38-3.52,3.46-5.14,1.08-1.62,2.02-3.05,2.81-4.27.83-1.26,1.35-2.13,1.57-2.6Z"/>
  <path class="cls-1" d="M312.82,118.6c-1.84-.32-3.55-.76-5.13-1.33-1.58-.63-2.95-1.43-4.08-2.38-.82-.76-1.43-1.65-1.81-2.66-.38-1.08-.57-2.22-.57-3.42,0-2.03.35-4.12,1.04-6.27.7-2.22,1.3-4.12,1.81-5.7,1.2-3.55,2.63-7.32,4.28-11.31,1.71-3.99,3.42-7.85,5.13-11.59,1.77-3.74,3.36-7.06,4.75-9.98,1.39-2.91,2.44-5.04,3.14-6.37.25-.51.48-.98.67-1.42.25-.44.51-.86.76-1.24-.63.06-1.23.16-1.8.28-.57.06-1.11.13-1.61.19-2.79.38-5.7,1.01-8.74,1.9-2.98.82-5.67,1.87-8.08,3.13-2.41,1.27-4.15,2.82-5.23,4.66-.06.19-.19.28-.38.28-.13,0-.22-.13-.29-.38-.13-.25-.16-.54-.1-.86.63-1.65,1.42-3.23,2.38-4.75.95-1.52,1.87-2.72,2.76-3.61,1.39-1.46,3.29-2.5,5.7-3.14,2.41-.63,4.88-1.04,7.41-1.23,2.6-.19,4.81-.29,6.65-.29h19.48c6.4,0,11.53,1.2,15.39,3.61,3.93,2.41,6.78,5.57,8.55,9.5,1.77,3.93,2.66,8.17,2.66,12.73,0,1.08-.03,2.15-.1,3.23-.06,1.08-.19,2.15-.38,3.23-.95,5.76-2.82,10.89-5.61,15.39-2.72,4.43-6.11,8.17-10.17,11.21-4.05,3.04-8.61,5.35-13.68,6.94-5,1.52-10.26,2.28-15.77,2.28-1.46,0-2.95-.06-4.46-.19-1.52-.06-3.04-.22-4.56-.48ZM315.19,114.9c.82.06,1.65.16,2.47.28.82.06,1.65.1,2.47.1,4.5,0,8.74-.79,12.73-2.38,4.05-1.58,7.7-3.8,10.93-6.65,3.29-2.85,6.08-6.14,8.36-9.88,2.28-3.74,3.93-7.79,4.94-12.16.7-2.91,1.04-5.7,1.04-8.36,0-2.85-.44-5.57-1.33-8.17-.82-2.66-2.18-5.04-4.09-7.13-1.71-1.9-3.99-3.36-6.84-4.37-2.85-1.08-5.48-1.71-7.89-1.9-.57-.06-1.14-.1-1.71-.1-.57-.06-1.14-.1-1.71-.1-1.14,1.52-2.31,3.33-3.52,5.42-1.2,2.03-2.38,4.12-3.52,6.27-1.08,2.15-2.03,4.12-2.85,5.89-2.15,4.62-4.18,9.25-6.08,13.87-1.9,4.62-3.61,9.34-5.13,14.16-.44,1.39-.89,2.98-1.33,4.75-.44,1.77-.67,3.42-.67,4.94,0,1.39.25,2.63.76,3.71.57,1.01,1.55,1.62,2.95,1.81ZM384.73,118.13c-2.03,0-3.48-.85-4.37-2.57-.7-1.52-1.05-3.33-1.05-5.42,0-2.34.35-4.94,1.05-7.79.7-2.85,1.65-5.76,2.85-8.74.44-1.08,1.01-2.44,1.71-4.09.76-1.65,1.65-3.26,2.66-4.85-.89.76-1.93,1.39-3.13,1.9-1.2.44-2.38.66-3.52.66-.89,0-1.62-.13-2.19-.38-.51,1.01-1.33,2.66-2.47,4.94-1.14,2.28-2.66,4.97-4.56,8.08-.19.32-.38.32-.57,0-.13-.38-.19-.89-.19-1.52,0-.51.06-1.04.19-1.61.13-.57.32-1.11.57-1.62.63-1.2,1.27-2.44,1.9-3.71.63-1.33,1.2-2.5,1.71-3.51.51-1.01.79-1.65.85-1.9-1.14-.57-1.99-1.36-2.57-2.38-.57-1.08-.85-2.12-.85-3.14s.22-1.93.66-2.75c.51-.82,1.24-1.46,2.19-1.9.57-.19,1.11-.29,1.61-.29,1.39,0,2.53.44,3.42,1.33-.06.25-.13.54-.19.86v.85c0,1.96.79,3.42,2.38,4.37,1.58.95,3.29,1.3,5.13,1.05.89-1.27,1.9-2.38,3.04-3.33,1.14-.95,2.38-1.43,3.7-1.43.7,0,1.68.03,2.95.1,1.33.06,2.28.06,2.85,0-.38.25-.82.76-1.33,1.52-.51.76-.98,1.55-1.42,2.38-.44.82-.79,1.46-1.05,1.9-1.71,3.29-3.29,6.59-4.75,9.88-1.46,3.23-2.57,6.33-3.33,9.31-.13.57-.25,1.11-.38,1.62-.06.44-.1.92-.1,1.42,0,1.9.63,2.85,1.9,2.85.89,0,2.15-.63,3.8-1.9,1.46-1.2,2.76-2.53,3.9-3.99,1.27-1.65,2.47-3.42,3.61-5.32,1.14-1.9,2.12-3.64,2.95-5.23.32-.51.54-.76.66-.76.38,0,.57.57.57,1.71,0,.44-.06.98-.19,1.62-.13.63-.35,1.24-.66,1.81-.95,1.58-2.03,3.32-3.23,5.23-1.2,1.84-2.44,3.64-3.71,5.41-.82,1.14-1.99,2.44-3.52,3.9-1.46,1.46-3.04,2.72-4.75,3.8-1.65,1.08-3.23,1.62-4.75,1.62ZM412.95,118.22c-.25-.13-.76-.35-1.52-.67-.7-.32-1.36-.7-1.99-1.14-.76-.57-1.14-1.27-1.14-2.09,0-.89.41-1.74,1.23-2.57.63-.7,1.43-1.27,2.38-1.71.95-.44,1.99-.66,3.14-.66,1.08,0,2,.19,2.76.57.76.32,1.14.92,1.14,1.81,0,.19-.06.54-.19,1.04-.51.06-1.17.44-1.99,1.14-.82.7-1.62,1.46-2.38,2.28-.7.82-1.17,1.49-1.42,2ZM427.06,117.46c1.39-3.55,2.98-7.47,4.75-11.78,1.84-4.37,3.74-8.84,5.7-13.4,1.96-4.56,3.9-8.99,5.8-13.3,1.96-4.31,3.74-8.23,5.32-11.78,1.65-3.61,3.01-6.59,4.09-8.93,1.08-2.34,1.77-3.8,2.09-4.37-2.79-.06-5.64.22-8.55.86-2.91.57-5.64,1.39-8.17,2.47-2.53,1.08-4.69,2.31-6.46,3.71-1.71,1.39-2.82,2.85-3.33,4.37-.06.19-.19.29-.38.29-.51,0-.76-.41-.76-1.24v-.38c.06-.19.13-.38.19-.57.57-1.65,1.27-3.1,2.09-4.37.89-1.27,1.74-2.34,2.57-3.23,2.09-2.15,4.43-3.45,7.03-3.9,2.6-.51,5.35-.76,8.27-.76h16.06c-.13.25-.38.76-.76,1.52-.38.76-.57,2.03-.57,3.8s.35,4.34,1.05,7.51c.76,3.17,2.22,7.25,4.37,12.26.82,1.96,1.58,3.8,2.28,5.51.7,1.65,1.3,3.2,1.8,4.66.95,2.53,1.65,4.56,2.09,6.08.44,1.46.73,2.6.85,3.42.19.82.28,1.55.28,2.18.06.57.13,1.2.19,1.9.76-1.9,1.81-4.4,3.14-7.51,1.33-3.1,2.79-6.52,4.37-10.26,1.65-3.74,3.32-7.54,5.04-11.4,1.71-3.86,3.33-7.51,4.85-10.93,1.52-3.42,2.79-6.33,3.8-8.74.19-.32.85-.47,1.99-.47s2.44.1,3.89.28c1.46.19,2.44.29,2.95.29-1.77,1.2-3.67,3.52-5.7,6.94-1.96,3.42-4.12,7.54-6.46,12.35-1.96,4.05-3.93,8.33-5.89,12.83-1.9,4.43-3.64,8.77-5.23,13.02-1.52,4.18-2.76,7.98-3.71,11.4-.89,3.42-1.33,6.08-1.33,7.98v.95c.06.25.13.51.19.76h-5.99c-.06-1.9-.29-3.67-.67-5.32-.38-1.65-.98-3.51-1.8-5.6-.82-2.15-1.96-4.81-3.42-7.98-1.39-3.23-3.14-7.32-5.23-12.26-1.84-4.31-3.2-8.08-4.09-11.31-.82-3.23-1.33-5.99-1.52-8.27-1.01,2.28-2.22,5-3.61,8.17-1.33,3.1-2.72,6.4-4.18,9.88-1.46,3.48-2.85,6.97-4.18,10.45-1.33,3.48-2.53,6.74-3.61,9.79-1.01,3.04-1.77,5.67-2.28,7.89-.51,2.15-.67,3.67-.48,4.56h-8.74ZM516.43,118.03c-1.96,0-3.33-.76-4.09-2.28-.7-1.52-1.04-3.39-1.04-5.61,0-2.03.19-4.02.57-5.99.19-.89.38-1.77.57-2.66.25-.95.54-1.93.85-2.95-1.08,1.96-2.22,3.86-3.42,5.7-1.14,1.84-2.31,3.45-3.52,4.85-2.03,2.47-4.18,4.53-6.46,6.18-2.22,1.65-4.43,2.47-6.65,2.47-1.77,0-3.29-.63-4.56-1.9-1.2-1.33-1.8-3.61-1.8-6.84s.57-6.68,1.71-10.17,2.72-6.71,4.75-9.69c2.09-3.04,4.53-5.48,7.32-7.32,2.85-1.84,5.95-2.75,9.31-2.75,1.08,0,2.25.16,3.52.47,1.27.32,2.44.92,3.52,1.81,1.08.82,1.8,1.99,2.18,3.52.06-.13.13-.22.19-.29.13-.06.22-.13.29-.19.89-1.39,1.9-2.57,3.04-3.52s2.41-1.43,3.8-1.43c.7,0,1.68.03,2.95.1,1.27.06,2.19.06,2.76,0-.32.25-.76.76-1.33,1.52-.51.76-.98,1.55-1.43,2.38-.44.76-.79,1.36-1.04,1.81-1.71,3.29-3.26,6.55-4.66,9.79-1.39,3.23-2.47,6.33-3.23,9.31-.19.63-.32,1.24-.38,1.8-.06.51-.09,1.01-.09,1.52,0,1.65.54,2.47,1.61,2.47,1.01,0,2.28-.63,3.8-1.9,2.22-1.77,4.15-3.99,5.8-6.65,1.71-2.66,3.2-5.23,4.46-7.7.25-.44.48-.67.67-.67.38,0,.57.54.57,1.62,0,.51-.09,1.08-.28,1.71-.13.63-.35,1.24-.66,1.8-.89,1.52-2.06,3.39-3.52,5.61-1.39,2.22-2.98,4.4-4.75,6.56-1.77,2.09-3.64,3.86-5.6,5.32-1.9,1.46-3.8,2.18-5.7,2.18ZM497.52,109.77c.19.06.47.1.85.1,1.2,0,2.5-.51,3.9-1.52,1.39-1.01,2.79-2.31,4.18-3.9,1.39-1.65,2.63-3.29,3.71-4.94,2.79-4.43,4.85-7.76,6.17-9.98,1.33-2.22,2.09-3.48,2.28-3.8-.32-1.08-.89-1.87-1.71-2.38-.76-.51-1.68-.76-2.76-.76-1.39,0-2.88.38-4.47,1.14-1.52.76-2.82,1.68-3.9,2.76-1.65,1.65-3.23,3.77-4.75,6.37-1.46,2.6-2.66,5.16-3.61,7.7-.89,2.53-1.33,4.66-1.33,6.37,0,1.58.48,2.53,1.43,2.85ZM561.62,118.03c-1.9,0-3.23-.7-3.99-2.09-.7-1.46-1.05-3.26-1.05-5.42,0-1.01.06-2.03.19-3.04.13-1.08.29-2.15.48-3.23.13-.95.38-2.09.76-3.42.38-1.39.82-2.88,1.33-4.46-1.2,2.41-2.6,4.88-4.18,7.41-1.58,2.47-3.33,4.78-5.23,6.94-1.84,2.09-3.77,3.8-5.8,5.13-1.96,1.27-3.96,1.9-5.99,1.9-1.77,0-3.29-.63-4.56-1.9-1.2-1.33-1.8-3.61-1.8-6.84s.57-6.68,1.71-10.17c1.14-3.48,2.72-6.71,4.75-9.69,2.09-3.04,4.53-5.48,7.32-7.32,2.85-1.84,5.95-2.75,9.31-2.75,1.39,0,2.95.28,4.66.85,1.71.57,3.01,1.68,3.9,3.32.32-.51.57-1.01.76-1.52.19-.51.38-.95.57-1.33,1.52-3.36,2.82-6.52,3.9-9.5,1.08-2.98,2.03-5.29,2.85-6.93,1.08-2.15,1.93-3.77,2.57-4.85.63-1.14,1.2-1.93,1.71-2.38.57-.44,1.2-.76,1.9-.95.57-.13,1.2-.22,1.9-.28.7-.06,1.42-.1,2.18-.1h2.57c1.01,0,1.65-.03,1.9-.1-1.08.76-2.34,2.31-3.8,4.65-1.46,2.34-2.98,5.16-4.56,8.46-1.58,3.29-3.14,6.81-4.66,10.55-1.46,3.67-2.82,7.35-4.09,11.02-1.2,3.61-2.18,6.9-2.95,9.88-.7,2.98-1.05,5.38-1.05,7.22,0,2.03.57,3.04,1.71,3.04.76,0,1.65-.38,2.66-1.14,1.08-.76,2.06-1.62,2.95-2.57.89-.95,1.52-1.65,1.9-2.09,1.27-1.65,2.47-3.39,3.61-5.23,1.14-1.9,2.12-3.67,2.95-5.32.32-.51.54-.76.66-.76.44,0,.67.57.67,1.71,0,1.2-.32,2.34-.95,3.42-.89,1.52-1.96,3.23-3.23,5.13-1.2,1.84-2.44,3.64-3.71,5.41-.89,1.14-2.06,2.44-3.51,3.9-1.39,1.46-2.91,2.72-4.56,3.8-1.58,1.08-3.14,1.62-4.66,1.62ZM542.43,109.77c.19.06.47.1.85.1,1.77,0,3.83-1.17,6.18-3.51,2.41-2.41,4.81-5.54,7.22-9.41.51-.76,1.11-1.84,1.8-3.23.7-1.39,1.42-2.91,2.18-4.56.82-1.71,1.58-3.29,2.28-4.75-.44-.63-1.01-1.08-1.71-1.33-.63-.25-1.33-.38-2.09-.38-1.39,0-2.88.38-4.47,1.14-1.58.7-2.91,1.58-3.99,2.66-1.65,1.65-3.23,3.77-4.75,6.37-1.46,2.6-2.66,5.16-3.61,7.7-.89,2.53-1.33,4.66-1.33,6.37,0,1.58.47,2.53,1.42,2.85ZM598.35,71.86c-1.65-.57-2.47-1.65-2.47-3.23,0-1.46.57-2.94,1.71-4.47,1.2-1.58,2.5-2.6,3.9-3.04.32-.13.57-.19.76-.19h.76c1.08,0,1.96.32,2.66.95.7.63,1.04,1.36,1.04,2.19,0,1.14-.6,2.09-1.8,2.85-.95-.13-1.87.09-2.76.66-.89.57-1.68,1.27-2.38,2.09-.63.82-1.11,1.55-1.43,2.18ZM582.01,118.03c-.82,0-1.61-.19-2.38-.57-.76-.32-1.39-.98-1.9-1.99-.7-1.52-1.05-3.33-1.05-5.42,0-2.28.35-4.81,1.05-7.6.7-2.85,1.62-5.76,2.76-8.74.44-1.08,1.01-2.41,1.71-3.99.7-1.58,1.52-3.17,2.47-4.75.95-1.58,2.03-2.88,3.23-3.9,1.27-1.08,2.63-1.62,4.09-1.62.7,0,1.68.03,2.95.1,1.27.06,2.18.06,2.76,0-.38.25-.82.76-1.33,1.52-.51.76-.98,1.55-1.43,2.38-.44.76-.79,1.36-1.04,1.81-1.65,3.29-3.2,6.55-4.65,9.79-1.46,3.23-2.57,6.33-3.33,9.31-.13.51-.22,1.01-.28,1.52-.06.51-.1.98-.1,1.42,0,1.84.6,2.76,1.81,2.76.51,0,1.04-.13,1.61-.38.63-.32,1.36-.79,2.19-1.42,1.46-1.14,2.72-2.44,3.8-3.9,1.27-1.65,2.47-3.39,3.61-5.23,1.14-1.9,2.12-3.64,2.95-5.23.32-.51.54-.76.66-.76.38,0,.57.54.57,1.62,0,.51-.09,1.11-.28,1.81-.13.63-.35,1.24-.67,1.8-.89,1.52-1.93,3.2-3.14,5.04-1.2,1.84-2.44,3.61-3.71,5.32-.89,1.2-2.06,2.53-3.51,3.99-1.46,1.46-3.01,2.72-4.66,3.8-1.65,1.01-3.23,1.52-4.75,1.52ZM627.12,118.03c-1.96,0-3.33-.76-4.09-2.28-.7-1.52-1.04-3.39-1.04-5.61,0-2.03.19-4.02.57-5.99.19-.89.38-1.77.57-2.66.25-.95.54-1.93.85-2.95-1.08,1.96-2.22,3.86-3.42,5.7-1.14,1.84-2.31,3.45-3.51,4.85-2.03,2.47-4.18,4.53-6.46,6.18-2.22,1.65-4.43,2.47-6.65,2.47-1.77,0-3.29-.63-4.56-1.9-1.2-1.33-1.81-3.61-1.81-6.84s.57-6.68,1.71-10.17,2.72-6.71,4.75-9.69c2.09-3.04,4.53-5.48,7.31-7.32,2.85-1.84,5.95-2.75,9.31-2.75,1.08,0,2.25.16,3.52.47,1.27.32,2.44.92,3.52,1.81,1.08.82,1.8,1.99,2.18,3.52.06-.13.13-.22.19-.29.13-.06.22-.13.28-.19.89-1.39,1.9-2.57,3.04-3.52s2.41-1.43,3.8-1.43c.7,0,1.68.03,2.95.1,1.27.06,2.19.06,2.76,0-.32.25-.76.76-1.33,1.52-.51.76-.98,1.55-1.42,2.38-.44.76-.79,1.36-1.04,1.81-1.71,3.29-3.26,6.55-4.66,9.79-1.39,3.23-2.47,6.33-3.23,9.31-.19.63-.32,1.24-.38,1.8-.06.51-.1,1.01-.1,1.52,0,1.65.54,2.47,1.62,2.47,1.01,0,2.28-.63,3.8-1.9,2.22-1.77,4.15-3.99,5.8-6.65,1.71-2.66,3.2-5.23,4.46-7.7.25-.44.48-.67.66-.67.38,0,.57.54.57,1.62,0,.51-.09,1.08-.28,1.71-.13.63-.35,1.24-.66,1.8-.89,1.52-2.06,3.39-3.52,5.61-1.39,2.22-2.98,4.4-4.75,6.56-1.77,2.09-3.64,3.86-5.6,5.32-1.9,1.46-3.8,2.18-5.7,2.18ZM608.21,109.77c.19.06.47.1.85.1,1.2,0,2.5-.51,3.9-1.52,1.39-1.01,2.79-2.31,4.18-3.9,1.39-1.65,2.63-3.29,3.71-4.94,2.79-4.43,4.85-7.76,6.18-9.98,1.33-2.22,2.09-3.48,2.28-3.8-.32-1.08-.89-1.87-1.71-2.38-.76-.51-1.68-.76-2.76-.76-1.39,0-2.88.38-4.47,1.14-1.52.76-2.82,1.68-3.89,2.76-1.65,1.65-3.23,3.77-4.75,6.37-1.46,2.6-2.66,5.16-3.61,7.7-.89,2.53-1.33,4.66-1.33,6.37,0,1.58.48,2.53,1.43,2.85ZM654.11,72.05c.38-.44.95-1.17,1.71-2.18.76-1.01,1.52-2.12,2.28-3.33.82-1.27,1.52-2.41,2.09-3.42.57-1.01.89-1.71.95-2.09-1.27.13-2.22-.16-2.85-.85-.63-.76-.95-1.68-.95-2.75,0-1.27.41-2.63,1.24-4.09,1.33-2.03,3.04-3.04,5.13-3.04.76,0,1.46.19,2.09.57,1.39.82,2.09,2.19,2.09,4.09,0,1.01-.19,2.09-.57,3.23-.32,1.08-.76,2.15-1.33,3.23-.38.63-.95,1.55-1.71,2.76-.7,1.2-1.55,2.44-2.57,3.71-1.01,1.2-2.09,2.25-3.23,3.14-1.14.82-2.25,1.24-3.33,1.24h-.57c-.13-.06-.29-.13-.48-.19ZM666.14,119.36c-2.15,0-4.18-.29-6.08-.85-1.9-.57-3.45-1.46-4.66-2.66-1.2-1.2-1.8-2.72-1.8-4.56,0-1.39.41-2.76,1.23-4.08.89-1.33,2.12-2,3.71-2,.7,0,1.33.16,1.9.48.57.32.95.73,1.14,1.24-.06.06-.22.29-.47.66-.25.32-.41.54-.48.67-.57,1.14-.85,2.18-.85,3.13,0,1.33.48,2.41,1.42,3.23,1.01.82,2.31,1.24,3.9,1.24,2.09-.06,3.9-.79,5.42-2.18,1.58-1.46,2.38-3.17,2.38-5.13,0-1.14-.25-2.22-.76-3.23-.82-1.71-1.93-3.17-3.33-4.37-1.33-1.27-2.63-2.53-3.9-3.8-1.2-1.27-2.09-2.79-2.66-4.56-.25-.82-.38-1.84-.38-3.04s.16-2.38.47-3.51c.32-1.2.79-2.22,1.42-3.04.89-1.2,2.22-2.31,3.99-3.32,2.22-1.2,4.81-1.8,7.79-1.8,1.96,0,3.71.25,5.23.76,1.14.38,2.12,1.01,2.95,1.9.89.82,1.33,1.93,1.33,3.33,0,1.58-.51,3.1-1.52,4.56-.95,1.39-2.34,2.25-4.18,2.57-1.14.13-2.15-.06-3.04-.57-.89-.57-1.2-1.62-.95-3.14,1.71-.38,2.95-1.08,3.71-2.09.38-.57.57-1.14.57-1.71,0-1.08-.44-1.81-1.33-2.19-.82-.44-1.62-.67-2.38-.67-.95,0-1.87.13-2.76.38-.82.19-1.58.54-2.28,1.04-1.39,1.2-2.09,2.6-2.09,4.18,0,.25.03.54.1.85.13.32.22.63.28.95.32.82.79,1.58,1.42,2.28.63.7,1.27,1.3,1.9,1.8,1.58,1.14,3.2,2.38,4.85,3.71,1.71,1.33,2.98,2.94,3.8,4.85.63,1.33.95,2.69.95,4.09,0,1.9-.48,3.64-1.42,5.22-.95,1.52-2.03,2.72-3.23,3.61,2.09-.89,4.12-2.44,6.08-4.66,2.03-2.28,3.77-4.53,5.23-6.75.95-1.46,1.8-2.82,2.57-4.08.82-1.33,1.65-2.79,2.47-4.37.25-.44.48-.67.66-.67.38,0,.57.54.57,1.62,0,.44-.09.98-.28,1.61-.13.63-.35,1.27-.66,1.9-1.14,1.9-2.22,3.67-3.23,5.32-1.01,1.58-2.25,3.32-3.7,5.22-2.91,3.86-6.02,6.62-9.31,8.27-3.29,1.58-7.19,2.38-11.69,2.38Z"/>
</svg>