<svg width="881" height="395" viewBox="0 0 881 395" fill="none" xmlns="http://www.w3.org/2000/svg">
<path d="M184 336.5C185.217 335.683 192.741 329.95 194.093 328.735C199.715 325.303 199.089 325.358 201.298 323.603C205.794 320.031 210.244 316.391 214.565 312.609C220.08 307.781 225.55 302.893 230.842 297.824C234.16 294.645 237.443 291.327 240.151 287.638C243.578 282.97 246.438 277.883 249.482 272.94C254.38 264.988 257.756 256.33 260.959 247.617C262.841 242.499 264.296 237.225 266.017 232.046C266.285 231.239 266.95 230.565 267.212 229.539C248.731 239.68 228.637 243.401 208.27 246.12L207.707 245.242C208.336 244.62 208.861 243.796 209.611 243.411C213.292 241.519 217.07 239.815 220.742 237.906C223.815 236.394 226.795 234.698 229.663 232.827C236.328 228.259 242.952 223.617 249.393 218.742C254.32 215.11 259.017 211.175 263.457 206.961C266.964 203.544 269.898 199.5 272.843 195.552C280.037 185.907 284.319 175.272 283.177 162.967C282.742 158.27 281.74 153.729 279.3 149.587C277.571 146.652 276.112 143.55 274.285 140.68C271.314 136.013 267.124 132.648 262.176 130.224C257.022 127.698 251.463 127.574 245.913 127.726C234.476 128.037 223.045 128.678 211.607 128.807C204.273 128.953 196.937 128.647 189.641 127.89C183.136 127.158 176.835 125.204 170.569 123.069C163.241 120.572 156.612 116.796 150.053 112.971C144.28 109.605 139.109 105.19 133.765 101.116C132.332 100.024 131.202 98.5189 130.004 97.1406C129.605 96.5676 129.269 95.9535 129 95.3089C130.78 94.5484 131.763 95.3303 133.064 96.1484C137.1 98.7557 141.295 101.109 145.624 103.193C150.509 105.445 155.518 107.419 160.626 109.105C163.534 110.078 166.684 110.379 169.746 110.838C185.479 113.194 200.985 111.134 216.447 108.343C228.354 106.195 240.231 103.862 252.173 101.932C260.536 100.504 269.053 100.213 277.494 101.066C283.253 101.698 289.113 102.173 294.675 103.661C304.983 106.417 314.566 110.967 322.103 118.765C325.973 122.768 328.454 127.839 330.341 133.088C334.867 145.673 334.8 158.625 333.275 171.691C332.049 182.207 328.375 191.961 323.904 201.418C321.045 207.466 317.708 213.292 314.496 219.168C313.088 221.744 311.498 224.225 309.917 226.702C306.741 231.677 303.719 236.77 300.253 241.538C296.287 246.994 291.883 252.133 287.718 257.447C285.827 259.86 284.128 262.425 282.202 264.808C280.262 267.208 278.107 269.433 276.122 271.799C273.679 274.71 271.46 277.821 268.883 280.604C265.308 284.464 261.596 288.212 257.75 291.802C252.483 296.718 247.11 301.52 241.631 306.206C239.459 308.065 236.895 309.461 234.525 311.092C231.482 313.185 228.491 315.357 225.411 317.395C222.283 319.465 219.109 321.466 215.89 323.399C210.84 326.424 205.869 329.622 200.622 332.269C193.465 335.879 186.094 339.068 178.778 342.356C177.917 342.743 176.826 342.619 175.842 342.732C176.507 341.859 177.021 340.778 177.872 340.162C179.277 339.209 180.768 338.388 182.324 337.709C183.061 337.404 183.508 337.128 184 336.5C184.73 335.716 185.015 334.913 185.135 334.124C185.86 329.695 186.599 325.264 187.173 320.814C187.68 316.873 187.694 312.941 185.511 309.237C182.01 309.308 178.812 310.825 175.666 312.442C167.931 316.418 162.174 322.783 156.264 328.893C153.583 331.664 151.566 335.064 149.11 338.067C147.536 339.992 145.721 341.724 143.983 343.512C143.791 343.709 143.224 343.869 143.128 343.768C142.807 343.475 142.604 343.077 142.556 342.646C142.671 340.937 142.607 339.141 143.132 337.549C145.549 330.225 148.021 322.914 150.726 315.693C151.94 312.451 153.939 309.509 155.23 306.29C156.88 302.2 159.008 298.319 161.569 294.728C165.717 288.91 170.359 283.398 176.47 279.273C180.687 276.427 185.035 274.576 190.107 274.837C197.21 275.202 200.55 277.96 201.98 284.932C203.277 291.259 203.621 297.664 202.493 304.054C201.498 309.695 199.338 314.929 196.581 319.946C194.879 323.043 193.06 325.565 190.765 328.735C190.477 329.18 190.205 329.579 190.01 330.047C190.01 330.047 186.269 334.063 184 336.5Z" fill="#BA6F8D"/>
<path d="M185.132 334.144C185.013 334.923 184.924 335.508 184.2 336.285L190.01 330.047C190.205 329.579 190.477 329.18 190.765 328.735C193.06 325.565 194.879 323.043 196.581 319.946C199.338 314.929 201.498 309.695 202.493 304.055C203.621 297.664 203.277 291.259 201.98 284.932C200.55 277.96 197.21 275.202 190.107 274.837C185.035 274.576 180.687 276.427 176.47 279.273C170.359 283.398 165.717 288.91 161.569 294.728C159.008 298.319 156.88 302.2 155.23 306.29C153.939 309.509 151.94 312.451 150.726 315.693C148.021 322.914 145.549 330.225 143.132 337.549C142.607 339.141 142.671 340.937 142.556 342.646C142.604 343.077 142.807 343.475 143.128 343.768C143.224 343.869 143.791 343.709 143.983 343.512C145.721 341.724 147.536 339.992 149.11 338.067C151.566 335.064 153.583 331.664 156.264 328.893C162.174 322.783 167.931 316.418 175.666 312.442C178.812 310.825 182.01 309.308 185.511 309.237C187.694 312.941 187.68 316.873 187.173 320.814C186.599 325.264 185.86 329.695 185.135 334.124L185.132 334.144Z" fill="#57354D"/>
<path d="M163.869 243.98C165.145 245.04 165.222 247.145 163.701 246.48C161.237 245.404 158.745 244.384 156.318 243.228C153.108 241.699 149.882 240.184 146.785 238.444C141.796 235.641 136.874 232.715 131.989 229.733C129.078 227.956 126.312 225.942 123.437 224.103C122.506 223.564 121.884 224.675 122.528 225.536C122.647 225.695 122.764 225.856 122.88 226.017C125.625 230.268 128.62 234.394 130.947 238.866C134.303 245.215 137.32 251.737 139.985 258.405C141.805 263.045 142.829 268.027 143.897 272.924C146.186 283.412 146.767 293.986 145.029 304.645C144.021 310.828 142.278 316.79 139.206 322.225C134.503 330.545 127.949 337.287 120.158 342.768C118.539 343.907 116.44 344.418 114.502 345.029C112.911 345.532 112.57 344.54 113.063 343.278C113.9 341.132 114.609 338.87 115.837 336.955C119.092 331.881 120.711 326.183 122.62 320.577C124.694 314.485 126.269 308.269 126.595 301.842C126.822 297.76 126.695 293.665 126.217 289.604C125.92 287.194 124.777 284.809 123.648 282.6C122.134 279.691 120.444 276.877 118.588 274.173C115.568 269.706 112.479 265.278 109.23 260.977C107.414 258.719 105.466 256.571 103.396 254.543C97.5026 248.412 91.5431 242.345 85.6675 236.197C82.7515 233.146 79.9154 230.015 77.1261 226.848C72.2561 221.318 67.2139 215.916 62.6801 210.119C57.6135 203.535 53.5422 196.242 50.5968 188.474C46.6122 178.254 45.4282 167.644 44.8548 156.84C44.4674 149.541 44.3825 142.278 46.1478 135.156C46.9523 131.91 48.3197 128.801 49.475 125.645C52.0461 118.624 57.4153 113.723 62.6963 108.881C64.7573 106.991 67.6135 105.836 70.2733 104.753C81.3763 100.14 93.479 98.4554 105.42 99.8617C113.861 100.838 121.735 103.193 129.531 106.462C135.703 109.049 141.013 112.941 146.714 116.234C154.018 120.453 161.084 125.128 168.592 128.935C174.613 131.924 180.874 134.402 187.309 136.344C195.532 138.9 204.128 140.045 212.734 139.732C220.781 139.438 228.81 138.676 236.85 138.162C237.619 138.112 237.941 139.304 237.637 140.013C237.491 140.352 237.318 140.636 237.066 140.758C224.808 146.71 211.487 147.349 198.258 148.065C193.23 148.337 188.126 147.509 183.079 146.977C179.608 146.649 176.163 146.083 172.77 145.282C166.161 143.642 159.534 142.155 153.315 139.072C148.511 136.69 143.234 135.265 138.18 133.381C133.016 131.472 127.628 130.233 122.148 129.694C114.641 128.928 107.682 130.485 102.367 136.103C98.5506 140.137 96.5469 145.277 95.3969 150.75C93.9333 157.921 94.4344 165.354 96.8473 172.264C98.6286 177.58 101.136 182.623 104.3 187.252C108.831 193.806 113.897 199.974 119.446 205.693C125.847 212.395 132.971 218.264 140.067 224.176C147.988 230.774 155.912 237.367 163.84 243.956C163.85 243.964 163.859 243.972 163.869 243.98Z" fill="#57354D"/>
<path d="M75.8646 92.8845C71.9899 93.3811 68.055 92.7128 64.5617 90.9648C61.2242 89.2542 58.295 86.8443 55.9737 83.8995C51.7963 78.6574 51.6543 72.6401 52.1615 66.5696C52.407 63.3883 53.8547 60.4197 56.2106 58.2668C56.3571 58.1333 56.4919 57.9876 56.6138 57.8314C61.0068 52.2148 67.0441 50.7688 73.7774 51.0188C77.5944 51.1605 81.4903 50.9681 84.9525 52.9337C95.3839 58.8558 99.2842 64.7802 97.9488 77.3933C97.0813 85.5865 88.5251 92.5125 79.8174 92.8768C78.4977 92.932 77.1738 92.8845 75.8646 92.8845Z" fill="#57354D"/>
<path d="M283.69 92.5422C277.905 93.1835 272.603 91.2227 268.213 86.9457C265.981 84.7712 264.305 82.1713 264.091 78.899C263.948 76.7252 263.431 74.483 263.793 72.3945C264.173 70.203 264.957 67.7834 266.354 66.1303C268.997 63.0033 272.246 60.2245 276.49 59.6082C285.076 58.3615 292.998 59.597 299.312 66.3949C300.879 68.0014 301.891 70.0672 302.199 72.29C302.749 76.2718 303.493 80.2709 301.313 84.0852C298.402 89.1787 293.953 91.8458 288.235 92.5184C286.721 92.6082 285.204 92.6162 283.69 92.5422Z" fill="#BA6F8D"/>
<ellipse cx="195.875" cy="261.897" rx="10.3322" ry="10.3277" fill="#57354D"/>
<path d="M330.95 282.485C341.029 282.485 348.764 284.964 354.154 289.923C359.544 294.828 362.239 301.673 362.239 310.459C362.239 319.245 359.598 326.198 354.316 331.319C349.087 336.44 341.083 339 330.303 339H310.979V282.485H330.95ZM331.596 327.842C337.364 327.842 341.784 326.387 344.856 323.476C347.982 320.566 349.545 316.335 349.545 310.783C349.545 305.231 347.982 300.973 344.856 298.008C341.784 294.99 337.04 293.481 330.626 293.481H323.592V327.842H331.596ZM411.442 282.485V293.723H383.305V305.366H408.612V316.119H383.305V327.842H412.331V339H370.693V282.485H411.442ZM460.705 282.485H473.317V339H460.705L433.781 303.587V339H421.168V282.485H432.972L460.705 318.868V282.485ZM508.761 293.4V339H496.149V293.4H480.14V282.485H524.77V293.4H508.761ZM567.752 339L562.497 326.791H538.807L533.552 339H520.131L544.548 282.485H556.756L581.174 339H567.752ZM550.692 299.302L543.577 315.715H557.727L550.692 299.302ZM585.306 339V282.485H597.919V327.762H622.013V339H585.306ZM665.595 327.842C671.793 327.842 676.86 325.39 680.795 320.485L688.88 328.813C682.466 336.035 674.893 339.647 666.161 339.647C657.483 339.647 650.314 336.898 644.654 331.4C639.048 325.902 636.246 318.976 636.246 310.621C636.246 302.212 639.102 295.205 644.816 289.6C650.583 283.994 657.617 281.191 665.918 281.191C675.189 281.191 682.951 284.722 689.203 291.783L681.361 300.676C677.372 295.717 672.413 293.238 666.484 293.238C661.741 293.238 657.671 294.801 654.275 297.927C650.934 301 649.263 305.177 649.263 310.459C649.263 315.688 650.853 319.892 654.033 323.072C657.213 326.252 661.067 327.842 665.595 327.842ZM738.728 339L733.473 326.791H709.783L704.528 339H691.107L715.524 282.485H727.732L752.15 339H738.728ZM721.668 299.302L714.554 315.715H728.703L721.668 299.302ZM804.551 301.242C804.551 310.298 800.966 316.146 793.798 318.787L808.108 339H792.585L780.053 320.97H771.321V339H758.708V282.485H780.134C788.92 282.485 795.172 283.967 798.891 286.932C802.664 289.896 804.551 294.666 804.551 301.242ZM780.538 310.055C784.85 310.055 787.788 309.354 789.351 307.953C790.914 306.552 791.695 304.342 791.695 301.323C791.695 298.251 790.887 296.149 789.27 295.017C787.653 293.885 784.823 293.319 780.781 293.319H771.321V310.055H780.538ZM855.775 282.485V293.723H827.639V305.366H852.946V316.119H827.639V327.842H856.665V339H815.026V282.485H855.775Z" fill="#BA6F8D"/>
<path d="M346.095 260.73V241.47C346.095 240.857 346.311 240.514 346.744 240.442C347.177 240.334 347.502 240.532 347.718 241.037C349.016 243.995 350.423 246.61 351.938 248.882C353.488 251.154 355.184 253.065 357.023 254.616C358.898 256.131 360.954 257.285 363.19 258.079C365.426 258.872 367.915 259.269 370.656 259.269C372.207 259.269 373.686 259.052 375.092 258.62C376.499 258.151 377.725 257.429 378.771 256.456C379.853 255.482 380.7 254.238 381.314 252.723C381.963 251.208 382.287 249.387 382.287 247.259C382.287 245.239 381.909 243.472 381.151 241.957C380.43 240.406 379.438 239.036 378.176 237.846C376.95 236.655 375.543 235.627 373.956 234.762C372.369 233.86 370.746 233.049 369.087 232.327C367.248 231.534 365.426 230.704 363.623 229.839C361.856 228.973 360.161 227.999 358.538 226.917C356.915 225.835 355.418 224.591 354.048 223.185C352.713 221.778 351.577 220.155 350.639 218.316C349.81 216.729 349.161 215.106 348.692 213.447C348.259 211.788 348.043 210.075 348.043 208.307C348.043 205.747 348.493 203.168 349.395 200.571C350.297 197.974 351.775 195.63 353.831 193.538C355.887 191.446 358.556 189.751 361.838 188.453C365.156 187.118 369.231 186.451 374.064 186.451C377.13 186.451 379.781 186.704 382.017 187.209C384.253 187.677 386.11 188.218 387.589 188.832C389.104 189.409 390.258 189.968 391.051 190.509C391.845 191.014 392.296 191.32 392.404 191.428C392.837 191.753 393.053 192.132 393.053 192.564V202.41C393.053 202.663 392.981 202.879 392.837 203.06C392.692 203.204 392.53 203.294 392.35 203.33C392.169 203.33 391.989 203.294 391.809 203.222C391.628 203.114 391.484 202.933 391.376 202.681C390.691 201.058 389.879 199.453 388.942 197.866C388.004 196.243 386.814 194.819 385.371 193.592C383.964 192.33 382.233 191.32 380.177 190.563C378.122 189.769 375.651 189.373 372.766 189.373C369.015 189.373 366.094 190.256 364.002 192.023C361.91 193.791 360.864 196.189 360.864 199.219C360.864 200.95 361.153 202.465 361.73 203.763C362.307 205.061 363.28 206.288 364.651 207.442C366.058 208.56 367.915 209.696 370.223 210.85C372.531 211.968 375.435 213.23 378.933 214.637C382.323 216.007 385.317 217.486 387.914 219.073C390.51 220.66 392.674 222.445 394.406 224.429C396.173 226.376 397.489 228.595 398.355 231.083C399.256 233.572 399.707 236.421 399.707 239.631C399.707 242.805 399.13 245.78 397.976 248.557C396.858 251.334 395.127 253.769 392.783 255.861C390.438 257.916 387.481 259.539 383.91 260.73C380.34 261.92 376.138 262.515 371.305 262.515C368.24 262.515 365.192 262.118 362.162 261.325C359.169 260.567 356.266 259.72 353.452 258.782C353.056 258.638 352.623 258.493 352.154 258.349C351.685 258.205 351.234 258.133 350.802 258.133C349.936 258.133 349.305 258.421 348.908 258.998C348.511 259.539 348.133 260.225 347.772 261.054C347.556 261.559 347.213 261.775 346.744 261.703C346.311 261.631 346.095 261.307 346.095 260.73ZM493.692 259.269C494.017 259.341 494.251 259.467 494.395 259.648C494.576 259.828 494.648 260.026 494.612 260.243C494.612 260.423 494.522 260.603 494.341 260.784C494.161 260.928 493.891 261 493.53 261H459.015C458.654 261 458.383 260.928 458.203 260.784C458.023 260.603 457.914 260.423 457.878 260.243C457.878 260.026 457.951 259.828 458.095 259.648C458.275 259.467 458.528 259.341 458.852 259.269C459.285 259.197 459.97 259.052 460.908 258.836C461.846 258.584 462.783 258.151 463.721 257.538C464.695 256.925 465.542 256.095 466.264 255.049C466.985 254.003 467.346 252.633 467.346 250.938V200.787C467.346 200.535 467.238 200.373 467.021 200.301C466.841 200.192 466.661 200.319 466.48 200.679C466.408 200.824 466.138 201.491 465.669 202.681C465.2 203.835 464.587 205.386 463.829 207.334C463.072 209.245 462.188 211.463 461.178 213.988C460.169 216.476 459.105 219.127 457.987 221.94C456.869 224.753 455.714 227.639 454.524 230.596C453.37 233.554 452.234 236.439 451.116 239.252C449.998 242.029 448.934 244.662 447.924 247.151C446.95 249.639 446.085 251.839 445.327 253.751C444.57 255.626 443.957 257.123 443.488 258.241C443.019 259.359 442.767 259.954 442.731 260.026C442.514 260.387 442.226 260.567 441.865 260.567C441.54 260.567 441.288 260.387 441.108 260.026C441.072 259.954 440.819 259.323 440.35 258.133C439.881 256.906 439.25 255.284 438.457 253.264C437.663 251.244 436.744 248.9 435.698 246.231C434.652 243.526 433.534 240.677 432.344 237.683C431.189 234.654 429.999 231.552 428.773 228.378C427.547 225.168 426.339 222.049 425.148 219.019C423.994 215.989 422.894 213.122 421.848 210.417C420.802 207.712 419.883 205.332 419.089 203.276C418.296 201.184 417.647 199.507 417.142 198.245C416.637 196.983 416.366 196.279 416.33 196.135C416.222 195.846 416.06 195.702 415.843 195.702C415.627 195.702 415.501 195.882 415.465 196.243C415.465 196.351 415.465 197.217 415.465 198.84C415.465 200.427 415.465 202.519 415.465 205.115C415.465 207.712 415.465 210.652 415.465 213.934C415.465 217.18 415.465 220.498 415.465 223.888V250.938C415.465 252.633 415.825 254.003 416.547 255.049C417.268 256.095 418.097 256.925 419.035 257.538C420.009 258.151 420.965 258.584 421.902 258.836C422.84 259.052 423.525 259.197 423.958 259.269C424.283 259.341 424.517 259.467 424.661 259.648C424.842 259.828 424.914 260.026 424.878 260.243C424.878 260.423 424.788 260.603 424.607 260.784C424.427 260.928 424.157 261 423.796 261H403.346C402.986 261 402.715 260.928 402.535 260.784C402.355 260.603 402.246 260.423 402.21 260.243C402.21 260.026 402.282 259.828 402.427 259.648C402.607 259.467 402.859 259.341 403.184 259.269C403.617 259.197 404.302 259.052 405.24 258.836C406.178 258.584 407.115 258.151 408.053 257.538C409.027 256.925 409.874 256.095 410.596 255.049C411.317 254.003 411.678 252.633 411.678 250.938V198.028C411.678 196.369 411.317 195.017 410.596 193.971C409.874 192.889 409.027 192.059 408.053 191.482C407.115 190.869 406.178 190.437 405.24 190.184C404.302 189.932 403.617 189.769 403.184 189.697C402.859 189.661 402.607 189.553 402.427 189.373C402.282 189.156 402.21 188.958 402.21 188.777C402.246 188.561 402.355 188.381 402.535 188.236C402.715 188.056 402.986 187.966 403.346 187.966H430.017C431.063 187.966 431.766 188.399 432.127 189.264C432.452 190.166 432.939 191.464 433.588 193.159C434.237 194.855 434.976 196.784 435.806 198.948C436.635 201.076 437.519 203.384 438.457 205.873C439.394 208.361 440.332 210.85 441.27 213.339C442.208 215.791 443.109 218.171 443.975 220.48C444.877 222.788 445.67 224.862 446.355 226.701C447.077 228.54 447.672 230.073 448.141 231.299C448.609 232.49 448.898 233.211 449.006 233.463C449.078 233.644 449.186 233.752 449.331 233.788C449.475 233.788 449.583 233.698 449.655 233.518C449.727 233.337 449.998 232.652 450.467 231.462C450.936 230.272 451.531 228.775 452.252 226.972C453.009 225.132 453.857 223.058 454.795 220.75C455.732 218.406 456.688 215.989 457.662 213.501C458.672 211.012 459.664 208.524 460.637 206.035C461.647 203.547 462.585 201.22 463.451 199.056C464.352 196.856 465.146 194.909 465.831 193.214C466.516 191.482 467.039 190.166 467.4 189.264C467.761 188.399 468.5 187.966 469.618 187.966H493.53C493.891 187.966 494.161 188.056 494.341 188.236C494.522 188.381 494.612 188.561 494.612 188.777C494.648 188.958 494.576 189.156 494.395 189.373C494.251 189.553 494.017 189.661 493.692 189.697C493.259 189.769 492.574 189.932 491.636 190.184C490.699 190.437 489.743 190.869 488.769 191.482C487.831 192.059 487.002 192.889 486.281 193.971C485.559 195.017 485.199 196.369 485.199 198.028V250.938C485.199 252.633 485.559 254.003 486.281 255.049C487.002 256.095 487.831 256.925 488.769 257.538C489.743 258.151 490.699 258.584 491.636 258.836C492.574 259.052 493.259 259.197 493.692 259.269ZM532.605 259.269C532.929 259.341 533.164 259.467 533.308 259.648C533.488 259.828 533.56 260.026 533.524 260.243C533.524 260.423 533.434 260.603 533.254 260.784C533.074 260.928 532.803 261 532.442 261H497.927C497.566 261 497.296 260.928 497.116 260.784C496.935 260.603 496.827 260.423 496.791 260.243C496.791 260.026 496.863 259.828 497.007 259.648C497.188 259.467 497.44 259.341 497.765 259.269C498.198 259.197 498.883 259.052 499.821 258.836C500.758 258.584 501.696 258.151 502.634 257.538C503.608 256.925 504.455 256.095 505.176 255.049C505.898 254.003 506.258 252.633 506.258 250.938V198.028C506.258 196.369 505.898 195.017 505.176 193.971C504.455 192.889 503.608 192.059 502.634 191.482C501.696 190.869 500.758 190.437 499.821 190.184C498.883 189.932 498.198 189.769 497.765 189.697C497.44 189.661 497.188 189.553 497.007 189.373C496.863 189.156 496.791 188.958 496.791 188.777C496.827 188.561 496.935 188.381 497.116 188.236C497.296 188.056 497.566 187.966 497.927 187.966H532.442C532.803 187.966 533.074 188.056 533.254 188.236C533.434 188.381 533.524 188.561 533.524 188.777C533.56 188.958 533.488 189.156 533.308 189.373C533.164 189.553 532.929 189.661 532.605 189.697C532.172 189.769 531.487 189.932 530.549 190.184C529.611 190.437 528.655 190.869 527.682 191.482C526.744 192.059 525.914 192.889 525.193 193.971C524.472 195.017 524.111 196.369 524.111 198.028V250.938C524.111 252.633 524.472 254.003 525.193 255.049C525.914 256.095 526.744 256.925 527.682 257.538C528.655 258.151 529.611 258.584 530.549 258.836C531.487 259.052 532.172 259.197 532.605 259.269ZM591.505 243.959C591.722 243.382 592.064 243.129 592.533 243.201C593.002 243.237 593.237 243.544 593.237 244.121V259.972C593.237 260.657 592.858 261 592.1 261H536.811C536.45 261 536.18 260.928 535.999 260.784C535.819 260.603 535.711 260.423 535.675 260.243C535.675 260.026 535.747 259.828 535.891 259.648C536.072 259.467 536.324 259.341 536.649 259.269C537.081 259.197 537.767 259.052 538.704 258.836C539.642 258.584 540.58 258.151 541.518 257.538C542.491 256.925 543.339 256.095 544.06 255.049C544.782 254.003 545.142 252.633 545.142 250.938V198.028C545.142 196.369 544.782 195.017 544.06 193.971C543.339 192.889 542.491 192.059 541.518 191.482C540.58 190.869 539.642 190.437 538.704 190.184C537.767 189.932 537.081 189.769 536.649 189.697C536.324 189.661 536.072 189.553 535.891 189.373C535.747 189.156 535.675 188.958 535.675 188.777C535.711 188.561 535.819 188.381 535.999 188.236C536.18 188.056 536.45 187.966 536.811 187.966H571.326C571.687 187.966 571.957 188.056 572.138 188.236C572.318 188.381 572.408 188.561 572.408 188.777C572.444 188.958 572.372 189.156 572.192 189.373C572.048 189.553 571.813 189.661 571.489 189.697C571.056 189.769 570.371 189.932 569.433 190.184C568.495 190.437 567.539 190.869 566.566 191.482C565.628 192.059 564.798 192.889 564.077 193.971C563.356 195.017 562.995 196.369 562.995 198.028V253.805C562.995 254.67 563.103 255.374 563.32 255.915C563.572 256.42 564.023 256.816 564.672 257.105C565.357 257.357 566.295 257.538 567.485 257.646C568.711 257.718 570.298 257.754 572.246 257.754C574.59 257.754 576.664 257.466 578.467 256.888C580.307 256.275 581.912 255.518 583.282 254.616C584.689 253.715 585.879 252.705 586.853 251.587C587.827 250.469 588.638 249.405 589.287 248.395C589.936 247.385 590.423 246.483 590.748 245.69C591.109 244.86 591.361 244.283 591.505 243.959ZM652.418 245.419C652.634 244.842 652.977 244.59 653.446 244.662C653.914 244.698 654.149 245.005 654.149 245.582V259.972C654.149 260.657 653.77 261 653.013 261H595.559C595.199 261 594.928 260.928 594.748 260.784C594.568 260.603 594.459 260.423 594.423 260.243C594.423 260.026 594.495 259.828 594.64 259.648C594.82 259.467 595.073 259.341 595.397 259.269C595.83 259.197 596.515 259.052 597.453 258.836C598.391 258.584 599.328 258.151 600.266 257.538C601.24 256.925 602.087 256.095 602.809 255.049C603.53 254.003 603.891 252.633 603.891 250.938V198.028C603.891 196.369 603.53 195.017 602.809 193.971C602.087 192.889 601.24 192.059 600.266 191.482C599.328 190.869 598.391 190.437 597.453 190.184C596.515 189.932 595.83 189.769 595.397 189.697C595.073 189.661 594.82 189.553 594.64 189.373C594.495 189.156 594.423 188.958 594.423 188.777C594.459 188.561 594.568 188.381 594.748 188.236C594.928 188.056 595.199 187.966 595.559 187.966H648.306C649.064 187.966 649.442 188.309 649.442 188.994V200.247C649.442 200.787 649.226 201.094 648.793 201.166C648.36 201.202 648 200.968 647.711 200.463C647.495 199.994 647.062 199.255 646.413 198.245C645.764 197.199 644.862 196.153 643.708 195.107C642.554 194.025 641.111 193.087 639.38 192.294C637.649 191.464 635.575 191.05 633.158 191.05C631.463 191.05 629.912 191.194 628.506 191.482C627.099 191.771 625.891 192.24 624.881 192.889C623.907 193.502 623.132 194.314 622.555 195.323C622.014 196.297 621.743 197.487 621.743 198.894V221.724V220.912C621.743 221.129 621.816 221.327 621.96 221.508C622.14 221.652 622.339 221.724 622.555 221.724H629.48C631.103 221.724 632.419 221.399 633.429 220.75C634.475 220.101 635.286 219.344 635.863 218.478C636.476 217.612 636.909 216.765 637.162 215.935C637.414 215.07 637.577 214.421 637.649 213.988C637.685 213.699 637.793 213.501 637.973 213.393C638.19 213.248 638.388 213.194 638.568 213.23C638.785 213.23 638.965 213.32 639.109 213.501C639.29 213.645 639.38 213.861 639.38 214.15V232.544C639.38 232.832 639.29 233.067 639.109 233.247C638.965 233.391 638.785 233.481 638.568 233.518C638.388 233.518 638.19 233.463 637.973 233.355C637.793 233.211 637.685 232.995 637.649 232.706C637.577 232.273 637.414 231.642 637.162 230.813C636.909 229.947 636.476 229.081 635.863 228.216C635.286 227.35 634.475 226.593 633.429 225.944C632.419 225.294 631.103 224.97 629.48 224.97H622.555C622.339 224.97 622.14 225.06 621.96 225.24C621.816 225.385 621.743 225.565 621.743 225.781V224.97V249.91C621.743 252.47 622.861 254.418 625.098 255.752C627.334 257.087 630.508 257.754 634.619 257.754C636.567 257.754 638.334 257.502 639.921 256.997C641.544 256.456 642.986 255.788 644.249 254.995C645.547 254.202 646.665 253.318 647.603 252.344C648.577 251.334 649.388 250.379 650.037 249.477C650.723 248.575 651.246 247.764 651.606 247.042C652.003 246.285 652.273 245.744 652.418 245.419ZM724.824 223.293C727.781 224.05 730.216 225.078 732.127 226.376C734.039 227.639 735.553 229.081 736.671 230.704C737.79 232.291 738.565 234.022 738.998 235.898C739.431 237.737 739.647 239.631 739.647 241.578C739.647 244.175 739.196 246.646 738.294 248.99C737.393 251.334 735.914 253.408 733.858 255.211C731.839 256.979 729.17 258.385 725.852 259.431C722.57 260.477 718.53 261 713.733 261H678.082C677.721 261 677.451 260.928 677.27 260.784C677.09 260.603 676.982 260.423 676.946 260.243C676.946 260.026 677.018 259.828 677.162 259.648C677.343 259.467 677.595 259.341 677.92 259.269C678.352 259.197 679.038 259.052 679.975 258.836C680.913 258.584 681.851 258.151 682.789 257.538C683.762 256.925 684.61 256.095 685.331 255.049C686.053 254.003 686.413 252.633 686.413 250.938V198.028C686.413 196.369 686.053 195.017 685.331 193.971C684.61 192.889 683.762 192.059 682.789 191.482C681.851 190.869 680.913 190.437 679.975 190.184C679.038 189.932 678.352 189.769 677.92 189.697C677.595 189.661 677.343 189.553 677.162 189.373C677.018 189.156 676.946 188.958 676.946 188.777C676.982 188.561 677.09 188.381 677.27 188.236C677.451 188.056 677.721 187.966 678.082 187.966H715.735C719.522 187.966 722.678 188.417 725.202 189.318C727.763 190.22 729.819 191.464 731.37 193.051C732.957 194.602 734.075 196.442 734.724 198.569C735.409 200.661 735.752 202.897 735.752 205.278C735.752 206.937 735.571 208.596 735.211 210.255C734.85 211.914 734.237 213.501 733.371 215.016C732.542 216.53 731.406 217.937 729.963 219.235C728.557 220.534 726.807 221.67 724.716 222.644C724.499 222.752 724.409 222.878 724.445 223.022C724.481 223.131 724.607 223.221 724.824 223.293ZM704.266 218.532C704.266 219.542 704.536 220.353 705.077 220.967C705.655 221.544 706.466 221.832 707.512 221.832C708.45 221.832 709.478 221.616 710.596 221.183C711.75 220.75 712.814 219.921 713.787 218.694C714.761 217.432 715.573 215.683 716.222 213.447C716.871 211.175 717.196 208.217 717.196 204.574C717.196 202.988 717.142 201.383 717.033 199.76C716.925 198.137 716.637 196.676 716.168 195.378C715.699 194.043 715.014 192.961 714.112 192.132C713.21 191.302 711.966 190.887 710.379 190.887C709.081 190.887 708.017 191.14 707.187 191.645C706.394 192.114 705.781 192.853 705.348 193.863C704.915 194.837 704.627 196.063 704.482 197.542C704.338 198.984 704.266 200.679 704.266 202.627V218.532ZM711.461 257.916C712.868 257.916 714.04 257.628 714.978 257.051C715.951 256.438 716.745 255.644 717.358 254.67C718.007 253.697 718.494 252.615 718.819 251.424C719.179 250.198 719.432 248.972 719.576 247.746C719.72 246.519 719.811 245.347 719.847 244.229C719.883 243.111 719.901 242.155 719.901 241.362C719.901 238.621 719.684 236.313 719.251 234.437C718.819 232.526 718.242 230.957 717.52 229.731C716.799 228.504 715.987 227.567 715.086 226.917C714.22 226.232 713.337 225.745 712.435 225.457C711.569 225.132 710.722 224.952 709.892 224.916C709.099 224.844 708.432 224.808 707.891 224.808C706.773 224.808 705.889 225.114 705.24 225.727C704.591 226.304 704.266 227.098 704.266 228.108V245.095C704.266 247.042 704.356 248.81 704.536 250.397C704.753 251.983 705.132 253.336 705.673 254.454C706.214 255.536 706.935 256.384 707.837 256.997C708.774 257.61 709.982 257.916 711.461 257.916ZM815.725 259.215C816.013 259.287 816.212 259.413 816.32 259.593C816.428 259.774 816.464 259.972 816.428 260.189C816.392 260.405 816.284 260.603 816.104 260.784C815.923 260.928 815.671 261 815.346 261H781.372C781.119 261 780.903 260.928 780.723 260.784C780.578 260.639 780.47 260.477 780.398 260.297C780.362 260.08 780.398 259.882 780.506 259.702C780.651 259.521 780.903 259.377 781.264 259.269C781.624 259.161 782.255 258.962 783.157 258.674C784.095 258.385 784.978 257.916 785.808 257.267C786.674 256.582 787.341 255.68 787.81 254.562C788.279 253.444 788.224 252.02 787.647 250.288C787.467 249.819 787.215 249.116 786.89 248.178C786.601 247.241 786.277 246.213 785.916 245.095C785.556 243.941 785.159 242.769 784.726 241.578C784.329 240.352 783.969 239.234 783.644 238.224C783.319 237.178 783.031 236.295 782.778 235.573C782.526 234.852 782.382 234.419 782.346 234.275C782.237 233.95 782.039 233.788 781.751 233.788H758.434C758.109 233.788 757.893 233.932 757.785 234.221C757.64 234.654 757.406 235.375 757.081 236.385C756.793 237.395 756.45 238.531 756.053 239.793C755.657 241.055 755.242 242.39 754.809 243.796C754.412 245.167 754.034 246.447 753.673 247.637C753.312 248.828 752.988 249.874 752.699 250.775C752.447 251.641 752.302 252.2 752.266 252.452C751.978 253.787 752.032 254.869 752.429 255.698C752.862 256.528 753.439 257.195 754.16 257.7C754.881 258.169 755.657 258.511 756.486 258.728C757.316 258.944 758.001 259.125 758.542 259.269C758.867 259.341 759.083 259.485 759.191 259.702C759.299 259.882 759.335 260.08 759.299 260.297C759.263 260.477 759.155 260.639 758.975 260.784C758.794 260.928 758.578 261 758.326 261H738.309C738.02 261 737.804 260.928 737.66 260.784C737.479 260.639 737.389 260.477 737.389 260.297C737.353 260.116 737.407 259.936 737.551 259.756C737.66 259.539 737.858 259.395 738.147 259.323C739.084 259.07 740.004 258.764 740.906 258.403C741.807 258.043 742.637 257.592 743.394 257.051C744.188 256.474 744.891 255.788 745.504 254.995C746.153 254.202 746.694 253.264 747.127 252.182C747.343 251.641 747.812 250.36 748.534 248.341C749.255 246.285 750.139 243.778 751.184 240.821C752.23 237.827 753.384 234.527 754.647 230.921C755.909 227.314 757.171 223.671 758.434 219.993C759.732 216.278 760.994 212.671 762.221 209.173C763.447 205.638 764.529 202.501 765.467 199.76C766.404 197.019 767.162 194.801 767.739 193.105C768.352 191.41 768.677 190.509 768.713 190.4C768.857 190.004 769.037 189.697 769.254 189.481C769.47 189.264 769.813 189.12 770.281 189.048C771.075 188.904 771.995 188.705 773.041 188.453C774.086 188.2 775.15 187.93 776.232 187.641C777.35 187.353 778.45 187.046 779.532 186.722C780.614 186.361 781.606 185.982 782.508 185.586C783.121 185.297 783.554 185.225 783.806 185.369C784.095 185.513 784.329 185.802 784.51 186.235C784.546 186.343 784.834 187.245 785.375 188.94C785.952 190.635 786.692 192.853 787.593 195.594C788.531 198.299 789.577 201.401 790.731 204.899C791.885 208.397 793.075 212.004 794.302 215.719C795.564 219.434 796.808 223.131 798.034 226.809C799.261 230.488 800.379 233.86 801.389 236.926C802.434 239.991 803.318 242.642 804.039 244.878C804.761 247.078 805.266 248.575 805.554 249.369C806.095 250.92 806.726 252.272 807.448 253.426C808.205 254.544 809.017 255.518 809.882 256.347C810.784 257.141 811.722 257.772 812.695 258.241C813.669 258.71 814.679 259.034 815.725 259.215ZM759.299 229.568C759.119 230.037 759.263 230.272 759.732 230.272H780.344C780.777 230.272 780.921 230.055 780.777 229.622C780.741 229.514 780.56 228.991 780.236 228.054C779.947 227.08 779.55 225.853 779.046 224.375C778.541 222.86 777.982 221.165 777.368 219.289C776.755 217.414 776.124 215.521 775.475 213.609C774.826 211.661 774.195 209.768 773.582 207.929C772.968 206.053 772.409 204.394 771.904 202.951C771.436 201.473 771.039 200.283 770.714 199.381C770.426 198.479 770.281 198.01 770.281 197.974C770.209 197.722 770.047 197.614 769.795 197.65C769.578 197.686 769.434 197.812 769.362 198.028C769.326 198.101 769.109 198.768 768.713 200.03C768.316 201.256 767.811 202.843 767.198 204.791C766.585 206.702 765.899 208.848 765.142 211.229C764.385 213.573 763.627 215.899 762.87 218.207C762.149 220.516 761.463 222.68 760.814 224.699C760.201 226.719 759.696 228.342 759.299 229.568ZM863.909 194.782C864.486 193.664 864.684 192.799 864.504 192.186C864.36 191.537 864.017 191.05 863.476 190.725C862.971 190.364 862.394 190.13 861.745 190.022C861.096 189.877 860.555 189.769 860.122 189.697C859.797 189.661 859.545 189.553 859.364 189.373C859.22 189.156 859.148 188.958 859.148 188.777C859.184 188.561 859.292 188.381 859.473 188.236C859.653 188.056 859.923 187.966 860.284 187.966H878.948C879.309 187.966 879.58 188.056 879.76 188.236C879.94 188.381 880.03 188.561 880.03 188.777C880.066 188.994 879.994 189.192 879.814 189.373C879.67 189.553 879.435 189.661 879.111 189.697C878.57 189.769 877.92 189.914 877.163 190.13C876.406 190.31 875.576 190.635 874.675 191.104C873.809 191.537 872.871 192.132 871.861 192.889C870.888 193.646 869.914 194.638 868.94 195.864C868.471 196.442 867.732 197.397 866.722 198.732C865.712 200.066 864.576 201.599 863.314 203.33C862.051 205.025 860.735 206.811 859.364 208.686C858.03 210.525 856.768 212.257 855.577 213.88C854.423 215.503 853.432 216.909 852.602 218.099C851.809 219.289 851.322 220.065 851.141 220.426C850.745 221.291 850.456 222.121 850.276 222.914C850.095 223.671 850.005 224.663 850.005 225.89V250.938C850.005 252.633 850.366 254.003 851.087 255.049C851.809 256.095 852.638 256.925 853.576 257.538C854.55 258.151 855.505 258.584 856.443 258.836C857.381 259.052 858.066 259.197 858.499 259.269C858.823 259.341 859.058 259.467 859.202 259.648C859.382 259.828 859.455 260.026 859.419 260.243C859.419 260.423 859.328 260.603 859.148 260.784C858.968 260.928 858.697 261 858.337 261H824.362C824.002 261 823.731 260.928 823.551 260.784C823.37 260.603 823.262 260.423 823.226 260.243C823.226 260.026 823.298 259.828 823.442 259.648C823.623 259.467 823.875 259.341 824.2 259.269C824.633 259.197 825.318 259.052 826.256 258.836C827.193 258.584 828.131 258.151 829.069 257.538C830.043 256.925 830.89 256.095 831.611 255.049C832.333 254.003 832.693 252.633 832.693 250.938V231.137C832.693 230.632 832.693 230.145 832.693 229.677C832.693 229.208 832.657 228.757 832.585 228.324C832.513 227.855 832.387 227.386 832.207 226.917C832.026 226.413 831.774 225.872 831.449 225.294C831.233 224.934 830.818 224.303 830.205 223.401C829.628 222.463 828.907 221.345 828.041 220.047C827.175 218.712 826.22 217.252 825.174 215.665C824.164 214.078 823.118 212.455 822.036 210.796C820.954 209.137 819.872 207.514 818.79 205.927C817.744 204.304 816.77 202.825 815.869 201.491C814.967 200.156 814.192 199.002 813.542 198.028C812.893 197.019 812.424 196.297 812.136 195.864C811.559 195.035 810.873 194.26 810.08 193.538C809.287 192.817 808.457 192.186 807.591 191.645C806.726 191.104 805.896 190.671 805.103 190.346C804.273 190.022 803.534 189.805 802.885 189.697C802.56 189.661 802.326 189.553 802.181 189.373C802.001 189.192 801.929 188.994 801.965 188.777C801.965 188.561 802.055 188.381 802.236 188.236C802.416 188.056 802.686 187.966 803.047 187.966H837.021C837.382 187.966 837.653 188.056 837.833 188.236C838.013 188.381 838.103 188.561 838.103 188.777C838.139 188.958 838.067 189.156 837.887 189.373C837.743 189.553 837.508 189.661 837.184 189.697C836.751 189.769 836.21 189.877 835.561 190.022C834.912 190.166 834.316 190.418 833.775 190.779C833.271 191.104 832.91 191.591 832.693 192.24C832.513 192.889 832.657 193.737 833.126 194.782C833.451 195.504 833.992 196.55 834.749 197.92C835.507 199.255 836.354 200.733 837.292 202.356C838.266 203.943 839.276 205.584 840.321 207.279C841.403 208.975 842.395 210.543 843.297 211.986C844.235 213.393 845.028 214.583 845.677 215.557C846.326 216.53 846.741 217.107 846.922 217.288C847.463 217.901 848.022 217.937 848.599 217.396C848.743 217.252 849.194 216.657 849.951 215.611C850.709 214.565 851.61 213.284 852.656 211.77C853.702 210.255 854.838 208.596 856.064 206.793C857.291 204.989 858.445 203.276 859.527 201.653C860.609 200.03 861.546 198.605 862.34 197.379C863.169 196.117 863.692 195.251 863.909 194.782Z" fill="#57354D"/>
<path d="M357.441 169.596C355.605 169.279 353.894 168.836 352.311 168.266C350.727 167.633 349.366 166.841 348.226 165.891C347.402 165.131 346.8 164.244 346.42 163.23C346.04 162.154 345.85 161.014 345.85 159.81C345.85 157.783 346.199 155.693 346.895 153.539C347.592 151.323 348.194 149.422 348.701 147.839C349.904 144.292 351.329 140.523 352.976 136.533C354.686 132.542 356.396 128.679 358.107 124.942C359.88 121.205 361.464 117.879 362.857 114.966C364.25 112.052 365.296 109.93 365.992 108.6C366.246 108.093 366.467 107.618 366.657 107.175C366.911 106.731 367.164 106.32 367.417 105.94C366.784 106.003 366.182 106.098 365.612 106.225C365.042 106.288 364.504 106.351 363.997 106.415C361.21 106.795 358.297 107.428 355.256 108.315C352.279 109.138 349.587 110.183 347.18 111.45C344.774 112.717 343.032 114.269 341.955 116.106C341.892 116.296 341.765 116.391 341.575 116.391C341.448 116.391 341.353 116.264 341.29 116.011C341.163 115.757 341.131 115.472 341.195 115.156C341.828 113.509 342.62 111.925 343.57 110.405C344.52 108.885 345.439 107.681 346.325 106.795C347.719 105.338 349.619 104.293 352.026 103.659C354.433 103.026 356.903 102.614 359.437 102.424C362.034 102.234 364.25 102.139 366.087 102.139H385.564C391.962 102.139 397.092 103.343 400.956 105.75C404.883 108.157 407.733 111.324 409.507 115.251C411.28 119.178 412.167 123.421 412.167 127.982C412.167 129.059 412.135 130.135 412.072 131.212C412.009 132.289 411.882 133.366 411.692 134.443C410.742 140.206 408.873 145.337 406.086 149.834C403.363 154.268 399.974 158.005 395.92 161.045C391.867 164.085 387.306 166.397 382.239 167.981C377.235 169.501 371.978 170.261 366.467 170.261C365.011 170.261 363.522 170.198 362.002 170.071C360.482 170.008 358.962 169.849 357.441 169.596ZM359.817 165.891C360.64 165.954 361.464 166.049 362.287 166.176C363.11 166.239 363.934 166.271 364.757 166.271C369.254 166.271 373.498 165.479 377.488 163.895C381.542 162.312 385.184 160.095 388.415 157.245C391.708 154.395 394.495 151.101 396.775 147.364C399.056 143.627 400.702 139.573 401.716 135.203C402.413 132.289 402.761 129.502 402.761 126.842C402.761 123.991 402.318 121.268 401.431 118.671C400.607 116.011 399.246 113.635 397.345 111.545C395.635 109.645 393.355 108.188 390.505 107.175C387.655 106.098 385.026 105.465 382.619 105.275C382.049 105.211 381.479 105.18 380.909 105.18C380.339 105.116 379.769 105.085 379.199 105.085C378.059 106.605 376.887 108.41 375.683 110.5C374.48 112.527 373.308 114.617 372.168 116.771C371.091 118.924 370.141 120.888 369.318 122.661C367.164 127.285 365.137 131.909 363.237 136.533C361.337 141.157 359.627 145.875 358.107 150.689C357.663 152.083 357.22 153.666 356.776 155.44C356.333 157.213 356.111 158.86 356.111 160.38C356.111 161.774 356.365 163.009 356.871 164.085C357.441 165.099 358.423 165.701 359.817 165.891ZM429.36 169.121C427.333 169.121 425.876 168.266 424.99 166.556C424.293 165.036 423.944 163.23 423.944 161.14C423.944 158.797 424.293 156.2 424.99 153.349C425.686 150.499 426.636 147.585 427.84 144.609C428.283 143.532 428.853 142.17 429.55 140.523C430.31 138.876 431.197 137.261 432.21 135.678C431.324 136.438 430.278 137.071 429.075 137.578C427.872 138.021 426.7 138.243 425.56 138.243C424.673 138.243 423.944 138.116 423.374 137.863C422.868 138.876 422.044 140.523 420.904 142.803C419.764 145.084 418.244 147.776 416.344 150.879C416.154 151.196 415.964 151.196 415.774 150.879C415.647 150.499 415.584 149.992 415.584 149.359C415.584 148.852 415.647 148.314 415.774 147.744C415.9 147.174 416.09 146.635 416.344 146.129C416.977 144.925 417.61 143.69 418.244 142.423C418.877 141.093 419.447 139.921 419.954 138.908C420.461 137.895 420.746 137.261 420.809 137.008C419.669 136.438 418.814 135.646 418.244 134.633C417.674 133.556 417.389 132.511 417.389 131.497C417.389 130.484 417.61 129.565 418.054 128.742C418.561 127.919 419.289 127.285 420.239 126.842C420.809 126.652 421.348 126.557 421.854 126.557C423.248 126.557 424.388 127 425.275 127.887C425.211 128.14 425.148 128.425 425.085 128.742C425.085 128.995 425.085 129.28 425.085 129.597C425.085 131.561 425.876 133.017 427.46 133.967C429.043 134.918 430.753 135.266 432.59 135.013C433.477 133.746 434.491 132.637 435.631 131.687C436.771 130.737 438.006 130.262 439.336 130.262C440.033 130.262 441.015 130.294 442.281 130.357C443.611 130.42 444.562 130.42 445.132 130.357C444.752 130.61 444.308 131.117 443.801 131.877C443.295 132.637 442.82 133.429 442.376 134.252C441.933 135.076 441.585 135.709 441.331 136.153C439.621 139.446 438.038 142.74 436.581 146.034C435.124 149.264 434.015 152.368 433.255 155.345C433.129 155.915 433.002 156.453 432.875 156.96C432.812 157.403 432.78 157.878 432.78 158.385C432.78 160.285 433.414 161.235 434.681 161.235C435.567 161.235 436.834 160.602 438.481 159.335C439.938 158.132 441.236 156.801 442.376 155.345C443.643 153.698 444.847 151.924 445.987 150.024C447.127 148.124 448.109 146.382 448.932 144.799C449.249 144.292 449.47 144.038 449.597 144.038C449.977 144.038 450.167 144.609 450.167 145.749C450.167 146.192 450.104 146.73 449.977 147.364C449.85 147.997 449.629 148.599 449.312 149.169C448.362 150.752 447.285 152.494 446.082 154.395C444.878 156.231 443.643 158.037 442.376 159.81C441.553 160.95 440.381 162.249 438.861 163.705C437.404 165.162 435.821 166.429 434.11 167.506C432.464 168.583 430.88 169.121 429.36 169.121ZM457.574 169.216C457.321 169.089 456.814 168.868 456.054 168.551C455.357 168.234 454.692 167.854 454.059 167.411C453.299 166.841 452.919 166.144 452.919 165.321C452.919 164.434 453.33 163.579 454.154 162.755C454.787 162.059 455.579 161.489 456.529 161.045C457.479 160.602 458.524 160.38 459.664 160.38C460.741 160.38 461.66 160.57 462.42 160.95C463.18 161.267 463.56 161.869 463.56 162.755C463.56 162.945 463.496 163.294 463.37 163.8C462.863 163.864 462.198 164.244 461.375 164.941C460.551 165.637 459.759 166.397 458.999 167.221C458.303 168.044 457.827 168.709 457.574 169.216ZM471.682 168.456C473.075 164.909 474.659 160.982 476.432 156.675C478.269 152.304 480.169 147.839 482.133 143.278C484.096 138.718 486.028 134.284 487.928 129.977C489.892 125.67 491.665 121.743 493.249 118.196C494.896 114.586 496.257 111.609 497.334 109.265C498.411 106.921 499.108 105.465 499.424 104.895C496.637 104.831 493.787 105.116 490.873 105.75C487.96 106.32 485.236 107.143 482.703 108.22C480.169 109.297 478.016 110.532 476.242 111.925C474.532 113.319 473.423 114.776 472.917 116.296C472.853 116.486 472.727 116.581 472.537 116.581C472.03 116.581 471.777 116.169 471.777 115.346C471.777 115.219 471.777 115.092 471.777 114.966C471.84 114.776 471.903 114.586 471.967 114.395C472.537 112.749 473.233 111.292 474.057 110.025C474.944 108.758 475.799 107.681 476.622 106.795C478.712 104.641 481.056 103.343 483.653 102.899C486.25 102.393 489.005 102.139 491.919 102.139H507.975C507.849 102.393 507.595 102.899 507.215 103.659C506.835 104.419 506.645 105.686 506.645 107.46C506.645 109.297 506.993 111.799 507.69 114.966C508.45 118.133 509.907 122.218 512.061 127.222C512.884 129.185 513.644 131.022 514.341 132.732C515.038 134.379 515.639 135.931 516.146 137.388C517.096 139.921 517.793 141.948 518.236 143.468C518.68 144.925 518.965 146.065 519.091 146.889C519.281 147.712 519.376 148.441 519.376 149.074C519.44 149.644 519.503 150.277 519.566 150.974C520.326 149.074 521.372 146.572 522.702 143.468C524.032 140.365 525.489 136.944 527.072 133.207C528.719 129.47 530.397 125.67 532.108 121.806C533.818 117.943 535.433 114.3 536.953 110.88C538.473 107.46 539.74 104.546 540.754 102.139C540.944 101.823 541.609 101.664 542.749 101.664C543.889 101.664 545.187 101.759 546.644 101.949C548.101 102.139 549.083 102.234 549.589 102.234C547.816 103.438 545.916 105.75 543.889 109.17C541.925 112.59 539.772 116.707 537.428 121.521C535.465 125.575 533.501 129.85 531.538 134.347C529.637 138.781 527.896 143.12 526.312 147.364C524.792 151.544 523.557 155.345 522.607 158.765C521.72 162.185 521.277 164.846 521.277 166.746C521.277 167.062 521.277 167.379 521.277 167.696C521.34 167.949 521.403 168.203 521.467 168.456H515.481C515.418 166.556 515.196 164.782 514.816 163.135C514.436 161.489 513.834 159.62 513.011 157.53C512.187 155.376 511.047 152.716 509.59 149.549C508.197 146.319 506.455 142.233 504.365 137.293C502.528 132.986 501.166 129.217 500.279 125.987C499.456 122.756 498.949 120.001 498.759 117.721C497.746 120.001 496.542 122.725 495.149 125.892C493.819 128.995 492.425 132.289 490.969 135.773C489.512 139.256 488.118 142.74 486.788 146.224C485.458 149.707 484.254 152.969 483.178 156.01C482.164 159.05 481.404 161.679 480.897 163.895C480.391 166.049 480.232 167.569 480.422 168.456H471.682ZM561.052 169.026C559.089 169.026 557.727 168.266 556.967 166.746C556.27 165.226 555.922 163.357 555.922 161.14C555.922 159.113 556.112 157.118 556.492 155.155C556.682 154.268 556.872 153.381 557.062 152.494C557.315 151.544 557.6 150.562 557.917 149.549C556.84 151.513 555.7 153.413 554.497 155.25C553.356 157.086 552.185 158.702 550.981 160.095C548.954 162.565 546.801 164.624 544.521 166.271C542.304 167.918 540.087 168.741 537.87 168.741C536.096 168.741 534.576 168.108 533.309 166.841C532.106 165.511 531.504 163.23 531.504 160C531.504 156.706 532.074 153.318 533.214 149.834C534.354 146.35 535.938 143.12 537.965 140.143C540.055 137.103 542.494 134.664 545.281 132.827C548.131 130.99 551.235 130.072 554.592 130.072C555.668 130.072 556.84 130.23 558.107 130.547C559.374 130.864 560.545 131.466 561.622 132.352C562.699 133.176 563.427 134.347 563.807 135.868C563.871 135.741 563.934 135.646 563.997 135.583C564.124 135.519 564.219 135.456 564.283 135.393C565.169 133.999 566.183 132.827 567.323 131.877C568.463 130.927 569.73 130.452 571.123 130.452C571.82 130.452 572.802 130.484 574.068 130.547C575.335 130.61 576.254 130.61 576.824 130.547C576.507 130.8 576.064 131.307 575.494 132.067C574.987 132.827 574.512 133.619 574.068 134.443C573.625 135.203 573.277 135.804 573.023 136.248C571.313 139.541 569.761 142.803 568.368 146.034C566.974 149.264 565.898 152.368 565.138 155.345C564.948 155.978 564.821 156.58 564.758 157.15C564.694 157.657 564.663 158.163 564.663 158.67C564.663 160.317 565.201 161.14 566.278 161.14C567.291 161.14 568.558 160.507 570.078 159.24C572.295 157.466 574.227 155.25 575.874 152.589C577.584 149.929 579.072 147.364 580.339 144.894C580.592 144.45 580.814 144.228 581.004 144.228C581.384 144.228 581.574 144.767 581.574 145.844C581.574 146.35 581.479 146.92 581.289 147.554C581.163 148.187 580.941 148.789 580.624 149.359C579.737 150.879 578.566 152.748 577.109 154.965C575.715 157.181 574.132 159.367 572.358 161.52C570.585 163.61 568.716 165.384 566.753 166.841C564.853 168.298 562.952 169.026 561.052 169.026ZM542.145 160.76C542.335 160.823 542.62 160.855 543 160.855C544.204 160.855 545.502 160.348 546.896 159.335C548.289 158.322 549.683 157.023 551.076 155.44C552.47 153.793 553.705 152.146 554.782 150.499C557.568 146.065 559.627 142.74 560.957 140.523C562.287 138.306 563.047 137.039 563.237 136.723C562.921 135.646 562.351 134.854 561.527 134.347C560.767 133.841 559.849 133.587 558.772 133.587C557.378 133.587 555.89 133.967 554.306 134.728C552.786 135.488 551.488 136.406 550.411 137.483C548.764 139.13 547.181 141.252 545.661 143.848C544.204 146.445 543 149.011 542.05 151.544C541.164 154.078 540.72 156.2 540.72 157.91C540.72 159.493 541.195 160.443 542.145 160.76ZM606.244 169.026C604.344 169.026 603.014 168.329 602.254 166.936C601.557 165.479 601.209 163.674 601.209 161.52C601.209 160.507 601.272 159.493 601.399 158.48C601.525 157.403 601.684 156.326 601.874 155.25C602 154.3 602.254 153.159 602.634 151.829C603.014 150.436 603.457 148.947 603.964 147.364C602.76 149.771 601.367 152.241 599.783 154.775C598.2 157.245 596.458 159.557 594.558 161.71C592.721 163.8 590.789 165.511 588.762 166.841C586.799 168.108 584.804 168.741 582.777 168.741C581.003 168.741 579.483 168.108 578.216 166.841C577.013 165.511 576.411 163.23 576.411 160C576.411 156.706 576.981 153.318 578.121 149.834C579.261 146.35 580.845 143.12 582.872 140.143C584.962 137.103 587.401 134.664 590.187 132.827C593.038 130.99 596.141 130.072 599.498 130.072C600.892 130.072 602.444 130.357 604.154 130.927C605.864 131.497 607.162 132.606 608.049 134.252C608.366 133.746 608.619 133.239 608.809 132.732C608.999 132.226 609.189 131.782 609.379 131.402C610.9 128.045 612.198 124.878 613.275 121.901C614.352 118.924 615.302 116.612 616.125 114.966C617.202 112.812 618.057 111.197 618.69 110.12C619.324 108.98 619.894 108.188 620.4 107.745C620.971 107.301 621.604 106.985 622.301 106.795C622.871 106.668 623.504 106.573 624.201 106.51C624.898 106.446 625.626 106.415 626.386 106.415C627.146 106.415 628.001 106.415 628.951 106.415C629.965 106.415 630.598 106.383 630.852 106.32C629.775 107.08 628.508 108.632 627.051 110.975C625.594 113.319 624.074 116.137 622.491 119.431C620.907 122.725 619.355 126.24 617.835 129.977C616.378 133.651 615.017 137.324 613.75 140.998C612.546 144.609 611.565 147.902 610.805 150.879C610.108 153.856 609.759 156.263 609.759 158.1C609.759 160.127 610.329 161.14 611.47 161.14C612.23 161.14 613.116 160.76 614.13 160C615.207 159.24 616.188 158.385 617.075 157.435C617.962 156.485 618.595 155.788 618.975 155.345C620.242 153.698 621.446 151.956 622.586 150.119C623.726 148.219 624.708 146.445 625.531 144.799C625.848 144.292 626.069 144.038 626.196 144.038C626.639 144.038 626.861 144.609 626.861 145.749C626.861 146.952 626.544 148.092 625.911 149.169C625.024 150.689 623.948 152.399 622.681 154.3C621.477 156.136 620.242 157.942 618.975 159.715C618.089 160.855 616.917 162.154 615.46 163.61C614.067 165.067 612.546 166.334 610.9 167.411C609.316 168.488 607.764 169.026 606.244 169.026ZM587.052 160.76C587.242 160.823 587.527 160.855 587.907 160.855C589.681 160.855 591.739 159.683 594.083 157.34C596.49 154.933 598.897 151.798 601.304 147.934C601.81 147.174 602.412 146.097 603.109 144.704C603.805 143.31 604.534 141.79 605.294 140.143C606.117 138.433 606.877 136.849 607.574 135.393C607.131 134.759 606.561 134.316 605.864 134.062C605.231 133.809 604.534 133.682 603.774 133.682C602.38 133.682 600.892 134.062 599.308 134.823C597.725 135.519 596.395 136.406 595.318 137.483C593.671 139.13 592.088 141.252 590.567 143.848C589.111 146.445 587.907 149.011 586.957 151.544C586.07 154.078 585.627 156.2 585.627 157.91C585.627 159.493 586.102 160.443 587.052 160.76ZM642.973 122.851C641.327 122.281 640.503 121.205 640.503 119.621C640.503 118.164 641.073 116.676 642.213 115.156C643.417 113.572 644.715 112.559 646.109 112.115C646.425 111.989 646.679 111.925 646.869 111.925C647.122 111.925 647.376 111.925 647.629 111.925C648.706 111.925 649.592 112.242 650.289 112.875C650.986 113.509 651.334 114.237 651.334 115.061C651.334 116.201 650.733 117.151 649.529 117.911C648.579 117.784 647.661 118.006 646.774 118.576C645.887 119.146 645.095 119.843 644.399 120.666C643.765 121.49 643.29 122.218 642.973 122.851ZM626.632 169.026C625.808 169.026 625.017 168.836 624.257 168.456C623.496 168.139 622.863 167.474 622.356 166.461C621.66 164.941 621.311 163.135 621.311 161.045C621.311 158.765 621.66 156.231 622.356 153.444C623.053 150.594 623.972 147.681 625.112 144.704C625.555 143.627 626.125 142.297 626.822 140.713C627.519 139.13 628.342 137.546 629.292 135.963C630.242 134.379 631.319 133.081 632.522 132.067C633.789 130.99 635.151 130.452 636.608 130.452C637.305 130.452 638.286 130.484 639.553 130.547C640.82 130.61 641.738 130.61 642.308 130.547C641.928 130.8 641.485 131.307 640.978 132.067C640.472 132.827 639.996 133.619 639.553 134.443C639.11 135.203 638.761 135.804 638.508 136.248C636.861 139.541 635.309 142.803 633.853 146.034C632.396 149.264 631.287 152.368 630.527 155.345C630.4 155.851 630.305 156.358 630.242 156.865C630.179 157.371 630.147 157.847 630.147 158.29C630.147 160.127 630.749 161.045 631.952 161.045C632.459 161.045 632.997 160.919 633.567 160.665C634.201 160.348 634.929 159.873 635.753 159.24C637.21 158.1 638.476 156.801 639.553 155.345C640.82 153.698 642.023 151.956 643.163 150.119C644.304 148.219 645.285 146.477 646.109 144.894C646.425 144.387 646.647 144.133 646.774 144.133C647.154 144.133 647.344 144.672 647.344 145.749C647.344 146.255 647.249 146.857 647.059 147.554C646.932 148.187 646.71 148.789 646.394 149.359C645.507 150.879 644.462 152.558 643.258 154.395C642.055 156.231 640.82 158.005 639.553 159.715C638.666 160.919 637.495 162.249 636.038 163.705C634.581 165.162 633.029 166.429 631.382 167.506C629.735 168.519 628.152 169.026 626.632 169.026ZM671.742 169.026C669.778 169.026 668.417 168.266 667.657 166.746C666.96 165.226 666.612 163.357 666.612 161.14C666.612 159.113 666.802 157.118 667.182 155.155C667.372 154.268 667.562 153.381 667.752 152.494C668.005 151.544 668.29 150.562 668.607 149.549C667.53 151.513 666.39 153.413 665.186 155.25C664.046 157.086 662.874 158.702 661.671 160.095C659.644 162.565 657.491 164.624 655.21 166.271C652.993 167.918 650.777 168.741 648.56 168.741C646.786 168.741 645.266 168.108 643.999 166.841C642.796 165.511 642.194 163.23 642.194 160C642.194 156.706 642.764 153.318 643.904 149.834C645.044 146.35 646.628 143.12 648.655 140.143C650.745 137.103 653.183 134.664 655.97 132.827C658.821 130.99 661.924 130.072 665.281 130.072C666.358 130.072 667.53 130.23 668.797 130.547C670.064 130.864 671.235 131.466 672.312 132.352C673.389 133.176 674.117 134.347 674.497 135.868C674.561 135.741 674.624 135.646 674.687 135.583C674.814 135.519 674.909 135.456 674.972 135.393C675.859 133.999 676.873 132.827 678.013 131.877C679.153 130.927 680.42 130.452 681.813 130.452C682.51 130.452 683.492 130.484 684.758 130.547C686.025 130.61 686.944 130.61 687.514 130.547C687.197 130.8 686.754 131.307 686.183 132.067C685.677 132.827 685.202 133.619 684.758 134.443C684.315 135.203 683.967 135.804 683.713 136.248C682.003 139.541 680.451 142.803 679.058 146.034C677.664 149.264 676.588 152.368 675.827 155.345C675.637 155.978 675.511 156.58 675.447 157.15C675.384 157.657 675.352 158.163 675.352 158.67C675.352 160.317 675.891 161.14 676.968 161.14C677.981 161.14 679.248 160.507 680.768 159.24C682.985 157.466 684.917 155.25 686.564 152.589C688.274 149.929 689.762 147.364 691.029 144.894C691.282 144.45 691.504 144.228 691.694 144.228C692.074 144.228 692.264 144.767 692.264 145.844C692.264 146.35 692.169 146.92 691.979 147.554C691.852 148.187 691.631 148.789 691.314 149.359C690.427 150.879 689.255 152.748 687.799 154.965C686.405 157.181 684.822 159.367 683.048 161.52C681.275 163.61 679.406 165.384 677.443 166.841C675.542 168.298 673.642 169.026 671.742 169.026ZM652.835 160.76C653.025 160.823 653.31 160.855 653.69 160.855C654.894 160.855 656.192 160.348 657.586 159.335C658.979 158.322 660.373 157.023 661.766 155.44C663.159 153.793 664.395 152.146 665.471 150.499C668.258 146.065 670.317 142.74 671.647 140.523C672.977 138.306 673.737 137.039 673.927 136.723C673.611 135.646 673.04 134.854 672.217 134.347C671.457 133.841 670.539 133.587 669.462 133.587C668.068 133.587 666.58 133.967 664.996 134.728C663.476 135.488 662.178 136.406 661.101 137.483C659.454 139.13 657.871 141.252 656.35 143.848C654.894 146.445 653.69 149.011 652.74 151.544C651.853 154.078 651.41 156.2 651.41 157.91C651.41 159.493 651.885 160.443 652.835 160.76ZM698.735 123.041C699.115 122.598 699.685 121.87 700.445 120.856C701.205 119.843 701.965 118.734 702.726 117.531C703.549 116.264 704.246 115.124 704.816 114.11C705.386 113.097 705.703 112.4 705.766 112.02C704.499 112.147 703.549 111.862 702.916 111.165C702.282 110.405 701.965 109.487 701.965 108.41C701.965 107.143 702.377 105.781 703.201 104.324C704.531 102.298 706.241 101.284 708.331 101.284C709.091 101.284 709.788 101.474 710.421 101.854C711.815 102.678 712.512 104.039 712.512 105.94C712.512 106.953 712.322 108.03 711.941 109.17C711.625 110.247 711.181 111.324 710.611 112.4C710.231 113.034 709.661 113.952 708.901 115.156C708.204 116.359 707.349 117.594 706.336 118.861C705.322 120.064 704.246 121.109 703.106 121.996C701.965 122.82 700.857 123.231 699.78 123.231C699.59 123.231 699.4 123.231 699.21 123.231C699.084 123.168 698.925 123.105 698.735 123.041ZM710.769 170.356C708.616 170.356 706.589 170.071 704.689 169.501C702.789 168.931 701.237 168.044 700.033 166.841C698.83 165.637 698.228 164.117 698.228 162.28C698.228 160.887 698.64 159.525 699.463 158.195C700.35 156.865 701.585 156.2 703.169 156.2C703.865 156.2 704.499 156.358 705.069 156.675C705.639 156.991 706.019 157.403 706.209 157.91C706.146 157.973 705.987 158.195 705.734 158.575C705.481 158.892 705.322 159.113 705.259 159.24C704.689 160.38 704.404 161.425 704.404 162.375C704.404 163.705 704.879 164.782 705.829 165.606C706.842 166.429 708.141 166.841 709.724 166.841C711.815 166.777 713.62 166.049 715.14 164.656C716.723 163.199 717.515 161.489 717.515 159.525C717.515 158.385 717.262 157.308 716.755 156.295C715.932 154.585 714.823 153.128 713.43 151.924C712.1 150.657 710.801 149.391 709.534 148.124C708.331 146.857 707.444 145.337 706.874 143.563C706.621 142.74 706.494 141.727 706.494 140.523C706.494 139.32 706.652 138.148 706.969 137.008C707.286 135.804 707.761 134.791 708.394 133.967C709.281 132.764 710.611 131.656 712.385 130.642C714.601 129.439 717.198 128.837 720.175 128.837C722.139 128.837 723.881 129.09 725.401 129.597C726.541 129.977 727.523 130.61 728.346 131.497C729.233 132.321 729.676 133.429 729.676 134.823C729.676 136.406 729.17 137.926 728.156 139.383C727.206 140.776 725.813 141.632 723.976 141.948C722.836 142.075 721.822 141.885 720.935 141.378C720.049 140.808 719.732 139.763 719.985 138.243C721.696 137.863 722.931 137.166 723.691 136.153C724.071 135.583 724.261 135.013 724.261 134.443C724.261 133.366 723.817 132.637 722.931 132.257C722.107 131.814 721.316 131.592 720.555 131.592C719.605 131.592 718.687 131.719 717.8 131.972C716.977 132.162 716.217 132.511 715.52 133.017C714.126 134.221 713.43 135.614 713.43 137.198C713.43 137.451 713.461 137.736 713.525 138.053C713.651 138.37 713.746 138.686 713.81 139.003C714.126 139.826 714.601 140.586 715.235 141.283C715.868 141.98 716.502 142.582 717.135 143.088C718.719 144.228 720.334 145.464 721.981 146.794C723.691 148.124 724.958 149.739 725.781 151.639C726.414 152.969 726.731 154.331 726.731 155.725C726.731 157.625 726.256 159.367 725.306 160.95C724.356 162.47 723.279 163.674 722.076 164.561C724.166 163.674 726.193 162.122 728.156 159.905C730.183 157.625 731.925 155.376 733.382 153.159C734.332 151.703 735.187 150.341 735.947 149.074C736.77 147.744 737.594 146.287 738.417 144.704C738.671 144.26 738.892 144.038 739.082 144.038C739.462 144.038 739.652 144.577 739.652 145.654C739.652 146.097 739.557 146.635 739.367 147.269C739.241 147.902 739.019 148.536 738.702 149.169C737.562 151.069 736.485 152.843 735.472 154.49C734.458 156.073 733.223 157.815 731.767 159.715C728.853 163.579 725.749 166.334 722.456 167.981C719.162 169.564 715.267 170.356 710.769 170.356Z" fill="black"/>
</svg>
